<?xml version="1.0" encoding="UTF-8" standalone="no"?>
<svg
   width="24"
   height="24"
   viewBox="0 0 24 24"
   fill="none"
   version="1.1"
   id="svg4"
   sodipodi:docname="arrow-right.svg"
   inkscape:version="1.1.1 (3bf5ae0d25, 2021-09-20)"
   xmlns:inkscape="http://www.inkscape.org/namespaces/inkscape"
   xmlns:sodipodi="http://sodipodi.sourceforge.net/DTD/sodipodi-0.dtd"
   xmlns="http://www.w3.org/2000/svg"
   xmlns:svg="http://www.w3.org/2000/svg">
  <defs
     id="defs8" />
  <sodipodi:namedview
     id="namedview6"
     pagecolor="#505050"
     bordercolor="#eeeeee"
     borderopacity="1"
     inkscape:pageshadow="0"
     inkscape:pageopacity="0"
     inkscape:pagecheckerboard="0"
     showgrid="false"
     inkscape:zoom="34.875"
     inkscape:cx="6.2795699"
     inkscape:cy="12"
     inkscape:window-width="1920"
     inkscape:window-height="1051"
     inkscape:window-x="0"
     inkscape:window-y="29"
     inkscape:window-maximized="1"
     inkscape:current-layer="svg4" />
  <path
     style="color:#000000;fill:#000000;stroke-linecap:round;stroke-linejoin:round;-inkscape-stroke:none"
     d="m 14,4 a 1,1 0 0 0 -0.707031,0.2929687 1,1 0 0 0 0,1.4140625 L 18.585937,11 H 17.599609 3 a 1,1 0 0 0 -1,1 1,1 0 0 0 1,1 h 14.599609 0.986328 l -5.292968,5.292969 a 1,1 0 0 0 0,1.414062 1,1 0 0 0 1.414062,0 l 7,-7 A 1,1 0 0 0 21.966797,12.080078 1,1 0 0 0 22,12 a 1,1 0 0 0 -0.0332,-0.166016 1,1 0 0 0 0,-0.09375 1,1 0 0 0 -0.02734,-0.04883 1,1 0 0 0 -0.232422,-0.398437 l -7,-7.0000003 A 1,1 0 0 0 14,4 Z"
     id="path2" />
</svg>
