<?xml version="1.0" encoding="UTF-8" standalone="no"?>
<svg
   width="42"
   height="30"
   viewBox="0 0 42 30"
   fill="none"
   version="1.1"
   id="svg269"
   sodipodi:docname="behance.svg"
   inkscape:version="1.1.1 (3bf5ae0d25, 2021-09-20)"
   xmlns:inkscape="http://www.inkscape.org/namespaces/inkscape"
   xmlns:sodipodi="http://sodipodi.sourceforge.net/DTD/sodipodi-0.dtd"
   xmlns="http://www.w3.org/2000/svg"
   xmlns:svg="http://www.w3.org/2000/svg">
  <defs
     id="defs273" />
  <sodipodi:namedview
     id="namedview271"
     pagecolor="#505050"
     bordercolor="#eeeeee"
     borderopacity="1"
     inkscape:pageshadow="0"
     inkscape:pageopacity="0"
     inkscape:pagecheckerboard="0"
     showgrid="false"
     inkscape:zoom="6.975"
     inkscape:cx="75.125448"
     inkscape:cy="-3.0824373"
     inkscape:window-width="1920"
     inkscape:window-height="1051"
     inkscape:window-x="0"
     inkscape:window-y="29"
     inkscape:window-maximized="1"
     inkscape:current-layer="svg269" />
  <path
     d="M14.3381 5C15.2631 5 16.1176 5.07001 16.9016 5.28003C17.6857 5.42005 18.3288 5.70883 18.9014 6.05887C19.474 6.40891 19.8969 6.90772 20.1876 7.54655C20.4695 8.18537 20.6192 8.96421 20.6192 9.81306C20.6192 10.8019 20.4078 11.6508 19.9057 12.2896C19.474 12.9284 18.7692 13.4972 17.9059 13.9173C19.1216 14.2673 20.0466 14.9062 20.6104 15.755C21.1742 16.6039 21.5354 17.6627 21.5354 18.8704C21.5354 19.8592 21.324 20.7081 20.9628 21.4169C20.6104 22.1257 20.0378 22.7646 19.3947 23.1846C18.7516 23.6134 17.9676 23.9635 17.1131 24.1735C16.2585 24.3835 15.404 24.5235 14.5495 24.5235L5 24.541V5H14.3381ZM13.7655 12.9284C14.5495 12.9284 15.1926 12.7184 15.6859 12.3596C16.1793 12.0008 16.3995 11.3707 16.3995 10.5919C16.3995 10.1631 16.329 9.74305 16.1881 9.46302C16.0471 9.18299 15.8357 8.96421 15.545 8.75419C15.2631 8.61417 14.9724 8.47416 14.62 8.40415C14.2676 8.33414 13.9064 8.33414 13.4835 8.33414H9.35189V12.9372C9.35189 12.9284 13.7655 12.9284 13.7655 12.9284ZM13.9769 21.2856C14.4085 21.2856 14.8314 21.2156 15.1926 21.1456C15.545 21.0756 15.9062 20.9356 16.1881 20.7168C16.47 20.4981 16.6902 20.288 16.9016 19.938C17.0426 19.588 17.1835 19.1592 17.1835 18.6603C17.1835 17.6715 16.9016 16.9626 16.329 16.4638C15.7564 16.035 14.9724 15.825 14.0474 15.825H9.35189V21.2769H13.9769V21.2856Z"
     fill="white"
     id="path265"
     style="fill:#000000" />
  <path
     d="M27.319 20.7256C27.8916 21.2944 28.7461 21.5744 29.8825 21.5744C30.6666 21.5744 31.3801 21.3644 31.9528 21.0056C32.5254 20.5768 32.8778 20.1568 33.0187 19.728H36.5073C35.9346 21.4257 35.0801 22.6333 33.9437 23.4122C32.8073 24.121 31.4506 24.541 29.812 24.541C28.6756 24.541 27.6713 24.331 26.7463 23.9722C25.8213 23.6222 25.1078 23.1234 24.4647 22.4145C23.8216 21.7757 23.3283 20.9969 23.0375 20.078C22.6852 19.1592 22.5354 18.1703 22.5354 17.0327C22.5354 15.9738 22.6764 14.9762 23.0375 14.0573C23.3987 13.1385 23.8921 12.3596 24.5352 11.6508C25.1782 11.012 25.9623 10.4431 26.8168 10.0931C27.7418 9.74306 28.6668 9.52428 29.812 9.52428C31.0278 9.52428 32.0937 9.73431 33.0187 10.2331C33.9437 10.7319 34.6573 11.292 35.2299 12.1408C35.8025 12.9197 36.2254 13.8385 36.5161 14.8274C36.657 15.8163 36.7275 16.8139 36.657 17.9428H26.3235C26.3235 19.0979 26.7463 20.1568 27.319 20.7256ZM31.8118 13.2872C31.3097 12.7884 30.5256 12.5084 29.6006 12.5084C28.9575 12.5084 28.4642 12.6484 28.0325 12.8584C27.6009 13.0684 27.319 13.3572 27.0371 13.6373C26.7551 13.9173 26.6054 14.2761 26.5349 14.6261C26.4644 14.9762 26.394 15.265 26.394 15.545H32.8073C32.6663 14.4949 32.3051 13.786 31.8118 13.2872ZM25.5394 5.8576H33.5208V7.76533H25.5394V5.8576Z"
     fill="white"
     id="path267"
     style="fill:#000000" />
</svg>
