<?xml version="1.0" encoding="UTF-8" standalone="no"?>
<svg
   width="24"
   height="24"
   viewBox="0 0 24 24"
   fill="none"
   version="1.1"
   id="svg304"
   sodipodi:docname="code.svg"
   inkscape:version="1.1.1 (3bf5ae0d25, 2021-09-20)"
   xmlns:inkscape="http://www.inkscape.org/namespaces/inkscape"
   xmlns:sodipodi="http://sodipodi.sourceforge.net/DTD/sodipodi-0.dtd"
   xmlns="http://www.w3.org/2000/svg"
   xmlns:svg="http://www.w3.org/2000/svg">
  <defs
     id="defs308" />
  <sodipodi:namedview
     id="namedview306"
     pagecolor="#505050"
     bordercolor="#eeeeee"
     borderopacity="1"
     inkscape:pageshadow="0"
     inkscape:pageopacity="0"
     inkscape:pagecheckerboard="0"
     showgrid="false"
     inkscape:zoom="34.875"
     inkscape:cx="6.2795699"
     inkscape:cy="12"
     inkscape:window-width="1920"
     inkscape:window-height="1051"
     inkscape:window-x="0"
     inkscape:window-y="29"
     inkscape:window-maximized="1"
     inkscape:current-layer="svg304" />
  <path
     style="color:#000000;fill:#000000;stroke-linecap:round;stroke-linejoin:round;-inkscape-stroke:none"
     d="M 14.242188,3.0292969 A 1,1 0 0 0 13.029297,3.7578125 L 9.0292969,19.757812 a 1,1 0 0 0 0.7285156,1.212891 1,1 0 0 0 1.2128905,-0.728516 l 4,-15.9999995 A 1,1 0 0 0 14.242188,3.0292969 Z M 6,7 A 1,1 0 0 0 5.2929687,7.2929687 l -4,4.0000003 a 1.0001,1.0001 0 0 0 0,1.414062 l 4,4 a 1,1 0 0 0 1.4140625,0 1,1 0 0 0 0,-1.414062 L 3.4140625,12 6.7070312,8.7070313 a 1,1 0 0 0 0,-1.4140626 A 1,1 0 0 0 6,7 Z m 11.292969,0.2929687 a 1,1 0 0 0 0,1.4140626 L 20.585937,12 17.292969,15.292969 a 1,1 0 0 0 0,1.414062 1,1 0 0 0 1.414062,0 l 4,-4 a 1.0001,1.0001 0 0 0 0,-1.414062 l -4,-4.0000003 a 1,1 0 0 0 -1.414062,0 z"
     id="path302" />
</svg>
