<?xml version="1.0" encoding="UTF-8" standalone="no"?>
<svg
   width="24"
   height="24"
   viewBox="0 0 24 24"
   fill="none"
   version="1.1"
   id="svg312"
   sodipodi:docname="collection.svg"
   inkscape:version="1.1.1 (3bf5ae0d25, 2021-09-20)"
   xmlns:inkscape="http://www.inkscape.org/namespaces/inkscape"
   xmlns:sodipodi="http://sodipodi.sourceforge.net/DTD/sodipodi-0.dtd"
   xmlns="http://www.w3.org/2000/svg"
   xmlns:svg="http://www.w3.org/2000/svg">
  <defs
     id="defs316" />
  <sodipodi:namedview
     id="namedview314"
     pagecolor="#505050"
     bordercolor="#eeeeee"
     borderopacity="1"
     inkscape:pageshadow="0"
     inkscape:pageopacity="0"
     inkscape:pagecheckerboard="0"
     showgrid="false"
     inkscape:zoom="34.875"
     inkscape:cx="6.2795699"
     inkscape:cy="12"
     inkscape:window-width="1920"
     inkscape:window-height="1051"
     inkscape:window-x="0"
     inkscape:window-y="29"
     inkscape:window-maximized="1"
     inkscape:current-layer="svg312" />
  <path
     style="color:#000000;fill:#000000;stroke-linecap:round;stroke-linejoin:round;-inkscape-stroke:none"
     d="M 9,2 C 7.3549921,2 6,3.3549921 6,5 V 6.4160156 C 4.8932999,6.8594098 4,7.7433488 4,9 v 1.416016 C 2.893303,10.859406 2,11.743337 2,13 v 6 c 0,1.645023 1.3550102,3 3,3 h 14 c 1.645005,0 3,-1.354995 3,-3 v -6 c 0,-1.256649 -0.8933,-2.14059 -2,-2.583984 V 9 C 20,7.7433626 19.106703,6.859414 18,6.4160156 V 5 C 18,3.3550102 16.645023,2 15,2 Z m 0,2 h 6 c 0.564175,0 1,0.435852 1,1 V 6 H 8 V 5 C 8,4.4358701 8.4358701,4 9,4 Z M 7,8 h 10 c 0.564175,0 1,0.435852 1,1 v 1 H 6 V 9 C 6,8.4358701 6.4358701,8 7,8 Z m -2,4 h 14 c 0.564193,0 1,0.435807 1,1 v 6 c 0,0.564193 -0.435807,1 -1,1 H 5 C 4.435852,20 4,19.564175 4,19 v -6 c 0,-0.564175 0.435852,-1 1,-1 z"
     id="path310" />
</svg>
