<?xml version="1.0" encoding="UTF-8" standalone="no"?>
<svg
   width="24"
   height="24"
   viewBox="0 0 24 24"
   fill="none"
   version="1.1"
   id="svg320"
   sodipodi:docname="device-mobile.svg"
   inkscape:version="1.1.1 (3bf5ae0d25, 2021-09-20)"
   xmlns:inkscape="http://www.inkscape.org/namespaces/inkscape"
   xmlns:sodipodi="http://sodipodi.sourceforge.net/DTD/sodipodi-0.dtd"
   xmlns="http://www.w3.org/2000/svg"
   xmlns:svg="http://www.w3.org/2000/svg">
  <defs
     id="defs324" />
  <sodipodi:namedview
     id="namedview322"
     pagecolor="#505050"
     bordercolor="#eeeeee"
     borderopacity="1"
     inkscape:pageshadow="0"
     inkscape:pageopacity="0"
     inkscape:pagecheckerboard="0"
     showgrid="false"
     inkscape:zoom="34.875"
     inkscape:cx="6.2795699"
     inkscape:cy="12"
     inkscape:window-width="1920"
     inkscape:window-height="1051"
     inkscape:window-x="0"
     inkscape:window-y="29"
     inkscape:window-maximized="1"
     inkscape:current-layer="svg320" />
  <path
     style="color:#000000;fill:#000000;stroke-linecap:round;stroke-linejoin:round;-inkscape-stroke:none"
     d="M 8,2 C 6.3549921,2 5,3.3549921 5,5 v 14 c 0,1.645023 1.3550102,3 3,3 h 8 c 1.645005,0 3,-1.354995 3,-3 V 5 C 19,3.3550102 17.645023,2 16,2 Z m 0,2 h 8 c 0.564175,0 1,0.435852 1,1 v 14 c 0,0.564193 -0.435807,1 -1,1 H 8 C 7.435852,20 7,19.564175 7,19 V 5 C 7,4.4358701 7.4358701,4 8,4 Z m 4,13 a 1,1 0 0 0 -1,1 1,1 0 0 0 1,1 h 0.0098 a 1,1 0 0 0 1,-1 1,1 0 0 0 -1,-1 z"
     id="path318" />
</svg>
