<?xml version="1.0" encoding="UTF-8" standalone="no"?>
<svg
   width="34"
   height="34"
   viewBox="0 0 34 34"
   fill="none"
   version="1.1"
   id="svg344"
   sodipodi:docname="figma.svg"
   inkscape:version="1.1.1 (3bf5ae0d25, 2021-09-20)"
   xmlns:inkscape="http://www.inkscape.org/namespaces/inkscape"
   xmlns:sodipodi="http://sodipodi.sourceforge.net/DTD/sodipodi-0.dtd"
   xmlns="http://www.w3.org/2000/svg"
   xmlns:svg="http://www.w3.org/2000/svg">
  <defs
     id="defs348" />
  <sodipodi:namedview
     id="namedview346"
     pagecolor="#505050"
     bordercolor="#eeeeee"
     borderopacity="1"
     inkscape:pageshadow="0"
     inkscape:pageopacity="0"
     inkscape:pagecheckerboard="0"
     showgrid="false"
     inkscape:zoom="24.617647"
     inkscape:cx="15.639188"
     inkscape:cy="17.528076"
     inkscape:window-width="1920"
     inkscape:window-height="1051"
     inkscape:window-x="0"
     inkscape:window-y="29"
     inkscape:window-maximized="1"
     inkscape:current-layer="svg344" />
  <path
     style="color:#000000;fill:#000000;-inkscape-stroke:none"
     d="m 20.535156,12.439453 c -1.209192,0 -2.369629,0.480844 -3.224609,1.335938 -0.855111,0.854997 -1.335938,2.015503 -1.335938,3.224609 0,1.209192 0.480875,2.369547 1.335938,3.224609 0.854959,0.85496 2.015382,1.335938 3.224609,1.335938 1.209227,0 2.369567,-0.481009 3.22461,-1.335938 0.854928,-0.855042 1.335937,-2.015382 1.335937,-3.224609 0,-1.209141 -0.480961,-2.369633 -1.335937,-3.224609 -0.855063,-0.855063 -2.015418,-1.335938 -3.22461,-1.335938 z m 0,1.121094 c 0.912606,0 1.786305,0.362477 2.431641,1.007812 0.645222,0.645222 1.007812,1.519184 1.007812,2.431641 0,0.912571 -0.362542,1.786284 -1.007812,2.431641 -0.645356,0.64527 -1.51907,1.007812 -2.431641,1.007812 -0.912571,0 -1.786401,-0.362573 -2.43164,-1.007812 C 17.45818,18.786305 17.095703,17.912606 17.095703,17 c 0,-0.912492 0.362525,-1.786439 1.007813,-2.431641 v -0.002 c 0.645218,-0.645305 1.519034,-1.005859 2.43164,-1.005859 z"
     id="path334" />
  <path
     style="color:#000000;fill:#000000;-inkscape-stroke:none"
     d="m 12.535156,20.439453 c -1.209192,0 -2.369546,0.480875 -3.2246091,1.335938 C 8.4554877,22.630381 7.9746094,23.790884 7.9746094,25 c 0,1.209202 0.4809267,2.369553 1.3359375,3.224609 0.8550421,0.854929 2.0153821,1.335938 3.2246091,1.335938 1.209141,0 2.369633,-0.480961 3.22461,-1.335938 C 16.614828,27.369547 17.095703,26.209192 17.095703,25 v -4.560547 z m 0,1.121094 h 3.439453 V 25 c 0,0.912606 -0.362476,1.786305 -1.007812,2.431641 -0.645222,0.645221 -1.519184,1.007812 -2.431641,1.007812 -0.912571,0 -1.788237,-0.362542 -2.433593,-1.007812 C 9.456988,26.786412 9.0957031,25.912043 9.0957031,25 c 0,-0.912482 0.3606001,-1.786433 1.0058599,-2.431641 0.645335,-0.645335 1.520987,-1.007812 2.433593,-1.007812 z"
     id="path336" />
  <path
     style="color:#000000;fill:#000000;-inkscape-stroke:none"
     d="M 15.974609,4.4394531 V 5 13.560547 h 4.560547 c 1.209192,0 2.369547,-0.480875 3.22461,-1.335938 C 24.614694,11.369567 25.095703,10.209193 25.095703,9 c 0,-1.2092098 -0.480993,-2.3695968 -1.335937,-3.2246094 -0.855056,-0.854999 -2.015407,-1.3359375 -3.22461,-1.3359375 z m 1.121094,1.1210938 h 3.439453 c 0.912596,0 1.786298,0.362513 2.431641,1.0078125 C 23.612051,7.2136653 23.974609,8.0874519 23.974609,9 c 0,0.9125253 -0.362542,1.786284 -1.007812,2.431641 -0.645336,0.645335 -1.519035,1.007812 -2.431641,1.007812 h -3.439453 z"
     id="path338" />
  <path
     style="color:#000000;fill:#000000;-inkscape-stroke:none"
     d="m 12.535156,4.4394531 c -1.209202,0 -2.369553,0.4809385 -3.2246091,1.3359375 C 8.4555203,6.6304172 7.9746094,7.7908148 7.9746094,9 c 0,1.209168 0.4809267,2.369553 1.3359375,3.224609 0.8550631,0.855063 2.0154171,1.335938 3.2246091,1.335938 h 4.560547 V 4.4394531 Z m 0,1.1210938 h 3.439453 v 6.8789061 h -3.439453 c -0.912606,0 -1.788258,-0.362477 -2.433593,-1.007812 C 9.4562547,10.786298 9.0957031,9.9125499 9.0957031,9 c 0,-0.9125727 0.3605675,-1.7863487 1.0058599,-2.4316406 0.645342,-0.6452995 1.520998,-1.0078125 2.433593,-1.0078125 z"
     id="path340" />
  <path
     style="color:#000000;fill:#000000;-inkscape-stroke:none"
     d="m 12.535156,12.439453 c -1.209192,0 -2.369546,0.480875 -3.2246091,1.335938 C 8.4554877,14.630381 7.9746094,15.790884 7.9746094,17 c 0,1.209202 0.4809267,2.369553 1.3359375,3.224609 0.8550421,0.854929 2.0153821,1.335938 3.2246091,1.335938 h 4.560547 v -9.121094 z m 0,1.121094 h 3.439453 v 6.878906 h -3.439453 c -0.912571,0 -1.788237,-0.362542 -2.433593,-1.007812 C 9.4562547,18.786298 9.0957031,17.912596 9.0957031,17 c 0,-0.912482 0.3606001,-1.786433 1.0058599,-2.431641 0.645335,-0.645335 1.520987,-1.007812 2.433593,-1.007812 z"
     id="path342" />
</svg>
