<?xml version="1.0" encoding="UTF-8" standalone="no"?>
<svg
   width="35"
   height="34"
   viewBox="0 0 35 34"
   fill="none"
   version="1.1"
   id="svg352"
   sodipodi:docname="linkedin.svg"
   inkscape:version="1.1.1 (3bf5ae0d25, 2021-09-20)"
   xmlns:inkscape="http://www.inkscape.org/namespaces/inkscape"
   xmlns:sodipodi="http://sodipodi.sourceforge.net/DTD/sodipodi-0.dtd"
   xmlns="http://www.w3.org/2000/svg"
   xmlns:svg="http://www.w3.org/2000/svg">
  <defs
     id="defs356" />
  <sodipodi:namedview
     id="namedview354"
     pagecolor="#505050"
     bordercolor="#eeeeee"
     borderopacity="1"
     inkscape:pageshadow="0"
     inkscape:pageopacity="0"
     inkscape:pagecheckerboard="0"
     showgrid="false"
     inkscape:zoom="24.617647"
     inkscape:cx="9.3835125"
     inkscape:cy="23.499403"
     inkscape:window-width="1920"
     inkscape:window-height="1051"
     inkscape:window-x="0"
     inkscape:window-y="29"
     inkscape:window-maximized="1"
     inkscape:current-layer="svg352" />
  <path
     d="M28.0706 6.69637V26.3742C28.0706 26.8241 27.8919 27.2556 27.5737 27.5737C27.2556 27.8919 26.8241 28.0706 26.3742 28.0706H6.69637C6.24646 28.0706 5.81499 27.8919 5.49685 27.5737C5.17872 27.2556 5 26.8241 5 26.3742V6.69637C5 6.24646 5.17872 5.81499 5.49685 5.49685C5.81499 5.17872 6.24646 5 6.69637 5H26.3742C26.8241 5 27.2556 5.17872 27.5737 5.49685C27.8919 5.81499 28.0706 6.24646 28.0706 6.69637V6.69637ZM11.7855 13.8211H8.39273V24.6779H11.7855V13.8211ZM12.0908 10.0891C12.0926 9.83247 12.0438 9.578 11.9473 9.34022C11.8507 9.10243 11.7083 8.886 11.528 8.70327C11.3478 8.52055 11.1334 8.37511 10.897 8.27525C10.6606 8.1754 10.4068 8.12309 10.1502 8.12132H10.0891C9.56721 8.12132 9.0667 8.32864 8.69767 8.69767C8.32864 9.0667 8.12132 9.56721 8.12132 10.0891C8.12132 10.611 8.32864 11.1115 8.69767 11.4805C9.0667 11.8496 9.56721 12.0569 10.0891 12.0569V12.0569C10.3458 12.0632 10.6011 12.0189 10.8406 11.9265C11.0802 11.834 11.2991 11.6953 11.485 11.5183C11.6709 11.3412 11.8201 11.1292 11.924 10.8945C12.028 10.6598 12.0847 10.4068 12.0908 10.1502V10.0891ZM24.6779 18.0824C24.6779 14.8186 22.6015 13.5497 20.5387 13.5497C19.8633 13.5159 19.1909 13.6597 18.5884 13.9669C17.986 14.2741 17.4746 14.7338 17.1053 15.3003H17.0103V13.8211H13.8211V24.6779H17.2138V18.9034C17.1648 18.312 17.3511 17.7252 17.7322 17.2703C18.1134 16.8155 18.6586 16.5294 19.2495 16.4742H19.3784C20.4573 16.4742 21.258 17.1528 21.258 18.8627V24.6779H24.6507L24.6779 18.0824Z"
     fill="white"
     id="path350"
     style="fill:#000000" />
</svg>
