<?xml version="1.0" encoding="UTF-8" standalone="no"?>
<svg
   width="24"
   height="24"
   viewBox="0 0 24 24"
   fill="none"
   version="1.1"
   id="svg360"
   sodipodi:docname="speakerphone.svg"
   inkscape:version="1.1.1 (3bf5ae0d25, 2021-09-20)"
   xmlns:inkscape="http://www.inkscape.org/namespaces/inkscape"
   xmlns:sodipodi="http://sodipodi.sourceforge.net/DTD/sodipodi-0.dtd"
   xmlns="http://www.w3.org/2000/svg"
   xmlns:svg="http://www.w3.org/2000/svg">
  <defs
     id="defs364" />
  <sodipodi:namedview
     id="namedview362"
     pagecolor="#505050"
     bordercolor="#eeeeee"
     borderopacity="1"
     inkscape:pageshadow="0"
     inkscape:pageopacity="0"
     inkscape:pagecheckerboard="0"
     showgrid="false"
     inkscape:zoom="34.875"
     inkscape:cx="6.2795699"
     inkscape:cy="12"
     inkscape:window-width="1920"
     inkscape:window-height="1051"
     inkscape:window-x="0"
     inkscape:window-y="29"
     inkscape:window-maximized="1"
     inkscape:current-layer="svg360" />
  <path
     style="color:#000000;fill:#000000;stroke-linecap:round;stroke-linejoin:round;-inkscape-stroke:none"
     d="M 18.351562,2.0644531 A 1.0001,1.0001 0 0 0 17.246094,2.3417969 C 16.047502,3.7134465 12.732011,5 8.8320313,5 H 7 c -2.7495693,0 -5,2.2504232 -5,5 0,1.830964 1.0787744,3.330754 2.5585937,4.201172 l 2.0800782,5.960937 a 1.0001,1.0001 0 0 0 0.00195,0.0059 C 7.0317249,21.263061 8.077451,22 9.2402344,22 10.752595,22 12,20.752586 12,19.240234 v -3.746093 c 2.371632,0.466724 4.411159,1.208576 5.246094,2.164062 A 1.0001,1.0001 0 0 0 19,17 V 13.796875 C 20.706352,13.340516 22,11.84357 22,10 22,8.1564586 20.706359,6.6594912 19,6.203125 V 3 A 1.0001,1.0001 0 0 0 18.351562,2.0644531 Z M 17,5.0976562 V 7 v 6 1.902344 c -1.308666,-0.792468 -3.132863,-1.139065 -5,-1.4375 V 6.5351562 c 1.867137,-0.298435 3.691334,-0.6450319 5,-1.4375 z M 10,6.828125 v 6.34375 C 9.5842634,13.148641 9.2603132,13 8.8320313,13 H 7 C 6.5809851,13 6.1877263,12.914529 5.828125,12.761719 4.7562048,12.306057 4,11.249576 4,10 4,8.3313012 5.3313137,7 7,7 H 8.8320313 C 9.2603132,7 9.5842634,6.8513588 10,6.828125 Z m 9,1.5820313 C 19.56412,8.7611657 20,9.2772019 20,10 c 0,0.722841 -0.43588,1.238849 -1,1.589844 z M 6.953125,14.990234 C 6.9696681,14.990397 6.9834247,15 7,15 H 8.8320313 C 9.2682481,15 9.5805336,15.151135 10,15.181641 v 4.058593 C 10,19.671681 9.6717117,20 9.2402344,20 8.9155792,20 8.6345703,19.8018 8.5253906,19.496094 Z"
     id="path358" />
</svg>
