<?xml version="1.0" encoding="UTF-8" standalone="no"?>
<svg
   width="24"
   height="24"
   viewBox="0 0 24 24"
   fill="none"
   version="1.1"
   id="svg372"
   sodipodi:docname="template.svg"
   inkscape:version="1.1.1 (3bf5ae0d25, 2021-09-20)"
   xmlns:inkscape="http://www.inkscape.org/namespaces/inkscape"
   xmlns:sodipodi="http://sodipodi.sourceforge.net/DTD/sodipodi-0.dtd"
   xmlns="http://www.w3.org/2000/svg"
   xmlns:svg="http://www.w3.org/2000/svg">
  <defs
     id="defs376" />
  <sodipodi:namedview
     id="namedview374"
     pagecolor="#505050"
     bordercolor="#eeeeee"
     borderopacity="1"
     inkscape:pageshadow="0"
     inkscape:pageopacity="0"
     inkscape:pagecheckerboard="0"
     showgrid="false"
     inkscape:zoom="34.875"
     inkscape:cx="6.2795699"
     inkscape:cy="12"
     inkscape:window-width="1920"
     inkscape:window-height="1051"
     inkscape:window-x="0"
     inkscape:window-y="29"
     inkscape:window-maximized="1"
     inkscape:current-layer="svg372" />
  <path
     style="color:#000000;fill:#000000;stroke-linecap:round;stroke-linejoin:round;-inkscape-stroke:none"
     d="M 5,3 C 3.9072706,3 3,3.9072706 3,5 v 2 c 0,1.0927294 0.9072706,2 2,2 h 14 c 1.09273,0 2,-0.9072947 2,-2 V 5 C 21,3.9072947 20.09273,3 19,3 Z M 5,5 H 19 V 7 H 5 Z"
     id="path366" />
  <path
     style="color:#000000;fill:#000000;stroke-linecap:round;stroke-linejoin:round;-inkscape-stroke:none"
     d="m 5,11 c -1.0927053,0 -2,0.90727 -2,2 v 6 c 0,1.09273 0.9072947,2 2,2 h 6 c 1.092706,0 2,-0.907294 2,-2 v -6 c 0,-1.092706 -0.907294,-2 -2,-2 z m 0,2 h 6 v 6 H 5 Z"
     id="path368" />
  <path
     style="color:#000000;fill:#000000;stroke-linecap:round;stroke-linejoin:round;-inkscape-stroke:none"
     d="m 17,11 c -1.092706,0 -2,0.907294 -2,2 v 6 c 0,1.092706 0.907294,2 2,2 h 2 c 1.092706,0 2,-0.907294 2,-2 v -6 c 0,-1.092706 -0.907294,-2 -2,-2 z m 0,2 h 2 v 6 h -2 z"
     id="path370" />
</svg>
