<?xml version="1.0" encoding="UTF-8" standalone="no"?>
<svg
   width="24"
   height="24"
   viewBox="0 0 24 24"
   fill="none"
   version="1.1"
   id="svg380"
   sodipodi:docname="user-add.svg"
   inkscape:version="1.1.1 (3bf5ae0d25, 2021-09-20)"
   xmlns:inkscape="http://www.inkscape.org/namespaces/inkscape"
   xmlns:sodipodi="http://sodipodi.sourceforge.net/DTD/sodipodi-0.dtd"
   xmlns="http://www.w3.org/2000/svg"
   xmlns:svg="http://www.w3.org/2000/svg">
  <defs
     id="defs384" />
  <sodipodi:namedview
     id="namedview382"
     pagecolor="#505050"
     bordercolor="#eeeeee"
     borderopacity="1"
     inkscape:pageshadow="0"
     inkscape:pageopacity="0"
     inkscape:pagecheckerboard="0"
     showgrid="false"
     inkscape:zoom="34.875"
     inkscape:cx="11.985663"
     inkscape:cy="12"
     inkscape:window-width="1920"
     inkscape:window-height="1051"
     inkscape:window-x="0"
     inkscape:window-y="29"
     inkscape:window-maximized="1"
     inkscape:current-layer="svg380" />
  <path
     style="color:#000000;fill:#000000;stroke-linecap:round;stroke-linejoin:round;-inkscape-stroke:none"
     d="M 9,2 C 6.2504232,2 4,4.2504232 4,7 4,9.7495768 6.2504232,12 9,12 11.749547,12 14,9.7495889 14,7 14,4.2504111 11.749547,2 9,2 Z m 0,2 c 1.668649,0 3,1.3313133 3,3 0,1.6686867 -1.331351,3 -3,3 C 7.3313012,10 6,8.6686988 6,7 6,5.3313012 7.3313012,4 9,4 Z m 9,4 a 1,1 0 0 0 -1,1 v 2 h -2 a 1,1 0 0 0 -1,1 1,1 0 0 0 1,1 h 2 v 2 a 1,1 0 0 0 1,1 1,1 0 0 0 1,-1 v -2 h 2 a 1,1 0 0 0 1,-1 1,1 0 0 0 -1,-1 H 19 V 9 A 1,1 0 0 0 18,8 Z m -9,5 c -3.8541477,0 -7,3.145863 -7,7 v 1 a 1.0001,1.0001 0 0 0 1,1 h 12 a 1.0001,1.0001 0 0 0 1,-1 v -1 c 0,-3.854139 -3.145861,-7 -7,-7 z m 0,2 c 2.773254,0 5,2.226746 5,5 H 4 c 0,-2.773256 2.2267344,-5 5,-5 z"
     id="path378" />
</svg>
