<?xml version="1.0" encoding="UTF-8" standalone="no"?>
<!-- Created with Inkscape (http://www.inkscape.org/) -->

<svg
   version="1.1"
   id="svg2"
   xml:space="preserve"
   width="666.66669"
   height="666.66669"
   viewBox="0 0 666.66669 666.66669"
   xmlns="http://www.w3.org/2000/svg"
   xmlns:svg="http://www.w3.org/2000/svg"><defs
     id="defs6"><clipPath
       clipPathUnits="userSpaceOnUse"
       id="clipPath18"><path
         d="M 0,500 H 500 V 0 H 0 Z"
         id="path16" /></clipPath><clipPath
       clipPathUnits="userSpaceOnUse"
       id="clipPath242"><path
         d="M 173.501,280.935 H 321.982 V 197.924 H 173.501 Z"
         id="path240" /></clipPath></defs><g
     id="g8"
     transform="matrix(1.3333333,0,0,-1.3333333,0,666.66667)"><g
       id="g12"><g
         id="g14"
         clip-path="url(#clipPath18)"><g
           id="g20"
           transform="translate(302.2046,312.8778)"><path
             d="m 0,0 c -2.339,-1.547 -2.981,-4.698 -1.434,-7.037 1.547,-2.339 4.698,-2.981 7.037,-1.434 2.339,1.547 2.981,4.698 1.434,7.037 C 5.49,0.905 2.339,1.547 0,0"
             style="fill:#3d3d3d;fill-opacity:1;fill-rule:nonzero;stroke:none"
             id="path22" /></g><g
           id="g24"
           transform="translate(296.2778,299.9757)"><path
             d="m 0,0 c -6.153,6.312 -4.048,16.648 4.086,20.055 4.542,1.902 9.947,0.797 13.378,-2.734 C 23.603,11.003 21.498,0.686 13.378,-2.72 8.839,-4.623 3.436,-3.525 0,0 m -17.819,-4.591 3.95,-5.973 c 0.371,-0.56 1.18,-0.805 1.8,-0.544 l 6.642,2.8 c 1.176,-0.98 2.431,-1.834 3.759,-2.54 l -0.114,-7.195 c -0.011,-0.668 0.517,-1.325 1.172,-1.459 l 7.018,-1.43 c 0.659,-0.134 1.404,0.265 1.657,0.887 l 2.725,6.7 c 1.492,0.139 2.979,0.44 4.436,0.887 l 4.999,-5.157 c 0.467,-0.482 1.306,-0.574 1.866,-0.204 l 5.974,3.951 c 0.559,0.371 0.804,1.179 0.543,1.798 l -2.818,6.683 c 0.934,1.135 1.749,2.343 2.429,3.615 l 7.147,-0.113 c 0.668,-0.011 1.325,0.517 1.458,1.172 l 1.432,7.022 c 0.133,0.656 -0.265,1.4 -0.885,1.652 l -6.621,2.695 c -0.132,1.477 -0.423,2.951 -0.861,4.397 l 5.18,5.019 c 0.482,0.467 0.574,1.308 0.203,1.868 l -3.95,5.973 c -0.37,0.559 -1.179,0.804 -1.797,0.543 l -6.651,-2.805 c -1.138,0.946 -2.352,1.774 -3.633,2.464 l 0.114,7.227 c 0.01,0.671 -0.518,1.329 -1.175,1.462 l -7.019,1.431 C 10.505,38.369 9.76,37.97 9.508,37.349 L 6.8,30.695 C 5.346,30.569 3.899,30.29 2.475,29.869 l -5.049,5.209 c -0.467,0.481 -1.306,0.573 -1.865,0.203 l -5.973,-3.951 c -0.559,-0.369 -0.803,-1.177 -0.543,-1.794 l 2.791,-6.62 c -0.995,-1.18 -1.861,-2.444 -2.576,-3.779 l -7.277,0.113 c -0.669,0.011 -1.326,-0.518 -1.46,-1.174 l -1.43,-7.02 c -0.134,-0.656 0.264,-1.399 0.884,-1.651 l 6.738,-2.743 c 0.13,-1.467 0.418,-2.927 0.85,-4.363 l -5.186,-5.025 c -0.483,-0.47 -0.575,-1.304 -0.198,-1.865"
             style="fill:#3d3d3d;fill-opacity:1;fill-rule:nonzero;stroke:none"
             id="path26" /></g><g
           id="g28"
           transform="translate(322.7993,352.9017)"><path
             d="m 0,0 c -1.528,-0.838 -2.088,-2.755 -1.25,-4.283 0.837,-1.528 2.755,-2.088 4.283,-1.25 1.528,0.837 2.088,2.755 1.25,4.283 C 3.446,0.278 1.528,0.838 0,0"
             style="fill:#3d3d3d;fill-opacity:1;fill-rule:nonzero;stroke:none"
             id="path30" /></g><g
           id="g32"
           transform="translate(318.4659,345.2184)"><path
             d="m 0,0 c -3.485,4.225 -1.65,10.516 3.562,12.207 2.91,0.943 6.2,-0.019 8.142,-2.382 C 15.18,5.598 13.346,-0.682 8.143,-2.372 5.235,-3.317 1.946,-2.359 0,0 m -11.269,-1.926 2.139,-3.901 c 0.2,-0.366 0.689,-0.559 1.086,-0.429 l 4.256,1.392 c 0.678,-0.668 1.411,-1.261 2.197,-1.766 l -0.441,-4.449 c -0.041,-0.414 0.252,-0.847 0.651,-0.964 l 4.272,-1.247 c 0.4,-0.116 0.882,0.092 1.071,0.464 l 2.032,4.008 c 0.931,0.009 1.867,0.119 2.792,0.321 l 2.829,-3.45 c 0.265,-0.322 0.78,-0.422 1.146,-0.222 l 3.901,2.139 c 0.366,0.2 0.559,0.688 0.429,1.085 l -1.401,4.283 c 0.637,0.654 1.204,1.36 1.69,2.113 l 4.419,-0.438 c 0.414,-0.041 0.847,0.252 0.964,0.65 l 1.247,4.274 c 0.117,0.4 -0.091,0.881 -0.463,1.069 l -3.96,2.009 c -0.006,0.922 -0.11,1.849 -0.307,2.767 l 3.466,2.841 c 0.322,0.264 0.422,0.78 0.222,1.146 l -2.139,3.901 c -0.2,0.366 -0.688,0.559 -1.084,0.429 l -4.263,-1.395 c -0.655,0.645 -1.365,1.22 -2.122,1.713 l 0.442,4.469 C 13.843,21.3 13.55,21.735 13.15,21.852 L 8.878,23.098 C 8.478,23.215 7.997,23.007 7.809,22.635 L 5.79,18.655 C 4.883,18.652 3.973,18.553 3.07,18.366 l -2.859,3.485 c -0.264,0.322 -0.779,0.421 -1.144,0.221 l -3.901,-2.138 c -0.365,-0.2 -0.558,-0.688 -0.429,-1.083 l 1.388,-4.243 c -0.677,-0.679 -1.278,-1.417 -1.79,-2.207 l -4.5,0.445 c -0.413,0.041 -0.847,-0.253 -0.964,-0.652 l -1.247,-4.273 c -0.116,-0.399 0.092,-0.88 0.463,-1.068 l 4.03,-2.044 c 0.005,-0.915 0.109,-1.835 0.302,-2.745 l -3.469,-2.845 c -0.323,-0.266 -0.423,-0.778 -0.219,-1.145"
             style="fill:#3d3d3d;fill-opacity:1;fill-rule:nonzero;stroke:none"
             id="path34" /></g><g
           id="g36"
           transform="translate(345.1746,326.7782)"><path
             d="m 0,0 c -1.276,-0.7 -1.744,-2.301 -1.044,-3.577 0.699,-1.277 2.301,-1.744 3.577,-1.044 1.276,0.699 1.744,2.301 1.044,3.577 C 2.878,0.232 1.276,0.7 0,0"
             style="fill:#3d3d3d;fill-opacity:1;fill-rule:nonzero;stroke:none"
             id="path38" /></g><g
           id="g40"
           transform="translate(341.5551,320.3609)"><path
             d="M 0,0 C -2.911,3.529 -1.378,8.783 2.975,10.195 5.405,10.984 8.153,10.18 9.776,8.207 12.679,4.675 11.147,-0.569 6.801,-1.981 4.372,-2.771 1.625,-1.97 0,0 m -9.412,-1.608 1.786,-3.259 c 0.168,-0.305 0.576,-0.467 0.907,-0.359 l 3.555,1.163 c 0.566,-0.557 1.179,-1.053 1.835,-1.475 l -0.368,-3.716 c -0.034,-0.345 0.21,-0.707 0.543,-0.805 L 2.414,-11.1 c 0.335,-0.098 0.738,0.077 0.895,0.388 l 1.697,3.347 c 0.778,0.008 1.56,0.1 2.333,0.268 l 2.363,-2.882 c 0.22,-0.269 0.651,-0.352 0.956,-0.185 l 3.259,1.786 c 0.305,0.168 0.467,0.576 0.358,0.907 l -1.17,3.577 c 0.532,0.546 1.005,1.136 1.412,1.765 l 3.691,-0.366 c 0.345,-0.034 0.707,0.21 0.804,0.543 l 1.042,3.57 c 0.098,0.334 -0.076,0.736 -0.386,0.893 L 16.36,4.189 C 16.355,4.958 16.268,5.733 16.104,6.5 l 2.894,2.372 c 0.269,0.221 0.353,0.652 0.185,0.958 l -1.786,3.258 c -0.167,0.306 -0.575,0.467 -0.906,0.358 l -3.56,-1.164 c -0.547,0.538 -1.14,1.018 -1.772,1.43 l 0.369,3.733 c 0.034,0.346 -0.211,0.709 -0.545,0.806 L 7.415,19.293 C 7.081,19.39 6.679,19.216 6.522,18.906 L 4.836,15.581 C 4.079,15.579 3.318,15.496 2.564,15.34 l -2.388,2.911 c -0.22,0.269 -0.65,0.352 -0.955,0.184 l -3.259,-1.786 c -0.305,-0.167 -0.466,-0.574 -0.358,-0.904 l 1.159,-3.544 c -0.565,-0.567 -1.067,-1.183 -1.495,-1.843 l -3.758,0.371 c -0.345,0.034 -0.708,-0.211 -0.805,-0.544 L -10.337,6.616 C -10.434,6.283 -10.26,5.881 -9.95,5.724 L -6.584,4.016 C -6.58,3.252 -6.493,2.484 -6.332,1.724 l -2.897,-2.376 c -0.27,-0.222 -0.354,-0.65 -0.183,-0.956"
             style="fill:#3d3d3d;fill-opacity:1;fill-rule:nonzero;stroke:none"
             id="path42" /></g><g
           id="g44"
           transform="translate(197.7993,312.8778)"><path
             d="m 0,0 c 2.339,-1.547 2.981,-4.698 1.434,-7.037 -1.547,-2.339 -4.698,-2.981 -7.037,-1.434 -2.339,1.547 -2.981,4.698 -1.434,7.037 C -5.49,0.905 -2.339,1.547 0,0"
             style="fill:#3d3d3d;fill-opacity:1;fill-rule:nonzero;stroke:none"
             id="path46" /></g><g
           id="g48"
           transform="translate(190.3479,297.2562)"><path
             d="m 0,0 c -8.12,3.405 -10.225,13.722 -4.086,20.04 3.431,3.532 8.837,4.636 13.378,2.734 C 17.427,19.367 19.531,9.032 13.378,2.72 9.943,-0.805 4.539,-1.904 0,0 m 30.999,-0.006 -5.186,5.025 c 0.432,1.435 0.72,2.896 0.851,4.363 l 6.737,2.742 c 0.62,0.253 1.018,0.996 0.884,1.651 l -1.43,7.021 c -0.133,0.656 -0.79,1.184 -1.46,1.174 l -7.277,-0.113 c -0.715,1.335 -1.581,2.599 -2.576,3.778 l 2.791,6.62 c 0.26,0.618 0.016,1.425 -0.543,1.795 L 17.817,38 c -0.559,0.37 -1.398,0.279 -1.865,-0.202 l -5.049,-5.209 c -1.424,0.421 -2.871,0.7 -4.325,0.826 L 3.871,40.069 C 3.618,40.69 2.874,41.088 2.217,40.954 l -7.018,-1.43 C -5.458,39.39 -5.987,38.732 -5.977,38.062 l 0.114,-7.228 c -1.28,-0.69 -2.495,-1.517 -3.633,-2.464 l -6.651,2.806 c -0.618,0.26 -1.427,0.016 -1.797,-0.544 l -3.95,-5.973 c -0.371,-0.56 -0.279,-1.4 0.203,-1.868 l 5.18,-5.019 c -0.438,-1.446 -0.728,-2.919 -0.861,-4.397 l -6.62,-2.694 c -0.621,-0.253 -1.019,-0.997 -0.885,-1.653 l 1.431,-7.022 c 0.133,-0.655 0.79,-1.182 1.458,-1.172 l 7.147,0.114 c 0.68,-1.272 1.495,-2.481 2.429,-3.615 l -2.818,-6.684 c -0.261,-0.618 -0.016,-1.427 0.544,-1.797 l 5.973,-3.951 c 0.56,-0.37 1.4,-0.279 1.867,0.203 l 4.998,5.157 c 1.458,-0.447 2.944,-0.748 4.436,-0.887 l 2.725,-6.699 c 0.253,-0.622 0.999,-1.021 1.657,-0.887 l 7.018,1.43 c 0.655,0.134 1.183,0.79 1.172,1.459 l -0.114,7.195 c 1.328,0.706 2.584,1.56 3.759,2.54 l 6.643,-2.801 c 0.619,-0.261 1.428,-0.016 1.799,0.545 l 3.95,5.972 c 0.377,0.562 0.285,1.396 -0.198,1.866"
             style="fill:#3d3d3d;fill-opacity:1;fill-rule:nonzero;stroke:none"
             id="path50" /></g><g
           id="g52"
           transform="translate(177.2045,352.9017)"><path
             d="m 0,0 c 1.528,-0.838 2.088,-2.755 1.25,-4.283 -0.837,-1.528 -2.755,-2.088 -4.283,-1.25 -1.528,0.837 -2.088,2.755 -1.25,4.283 C -3.446,0.278 -1.528,0.838 0,0"
             style="fill:#3d3d3d;fill-opacity:1;fill-rule:nonzero;stroke:none"
             id="path54" /></g><g
           id="g56"
           transform="translate(173.3949,342.8462)"><path
             d="m 0,0 c -5.203,1.691 -7.037,7.97 -3.561,12.198 1.942,2.363 5.233,3.325 8.142,2.381 C 9.793,12.888 11.628,6.597 8.143,2.372 6.197,0.013 2.908,-0.945 0,0 m 19.193,1.591 -3.469,2.845 c 0.193,0.911 0.297,1.83 0.302,2.745 l 4.03,2.044 c 0.371,0.188 0.579,0.669 0.463,1.068 l -1.247,4.273 c -0.117,0.4 -0.551,0.693 -0.964,0.652 l -4.5,-0.445 c -0.512,0.79 -1.113,1.528 -1.79,2.207 l 1.388,4.243 c 0.129,0.395 -0.063,0.883 -0.429,1.083 L 9.076,24.444 C 8.711,24.645 8.196,24.545 7.932,24.223 L 5.074,20.738 C 4.17,20.926 3.26,21.024 2.353,21.027 l -2.018,3.981 c -0.189,0.371 -0.67,0.579 -1.07,0.463 L -5.007,24.224 C -5.406,24.107 -5.7,23.673 -5.659,23.258 l 0.442,-4.469 c -0.757,-0.493 -1.467,-1.068 -2.122,-1.713 l -4.262,1.395 c -0.397,0.13 -0.885,-0.063 -1.085,-0.429 l -2.139,-3.901 c -0.2,-0.366 -0.1,-0.882 0.223,-1.146 l 3.465,-2.841 c -0.197,-0.918 -0.301,-1.845 -0.307,-2.767 l -3.96,-2.009 C -15.776,5.19 -15.984,4.709 -15.867,4.31 l 1.247,-4.274 c 0.117,-0.399 0.55,-0.692 0.964,-0.651 l 4.419,0.438 c 0.486,-0.752 1.053,-1.459 1.69,-2.113 l -1.401,-4.283 c -0.13,-0.396 0.063,-0.885 0.429,-1.085 l 3.901,-2.139 c 0.366,-0.2 0.881,-0.1 1.146,0.222 l 2.829,3.45 c 0.925,-0.201 1.861,-0.311 2.792,-0.321 l 2.032,-4.007 c 0.189,-0.372 0.671,-0.581 1.072,-0.464 l 4.271,1.246 c 0.399,0.117 0.692,0.55 0.651,0.964 l -0.441,4.449 c 0.786,0.505 1.519,1.098 2.197,1.766 l 4.256,-1.392 c 0.397,-0.13 0.886,0.063 1.086,0.429 l 2.139,3.901 c 0.204,0.368 0.104,0.879 -0.219,1.145"
             style="fill:#3d3d3d;fill-opacity:1;fill-rule:nonzero;stroke:none"
             id="path58" /></g><g
           id="g60"
           transform="translate(154.8293,326.7782)"><path
             d="M 0,0 C 1.276,-0.7 1.744,-2.301 1.044,-3.577 0.345,-4.854 -1.257,-5.321 -2.533,-4.621 -3.809,-3.922 -4.277,-2.32 -3.577,-1.044 -2.878,0.232 -1.276,0.7 0,0"
             style="fill:#3d3d3d;fill-opacity:1;fill-rule:nonzero;stroke:none"
             id="path62" /></g><g
           id="g64"
           transform="translate(151.6474,318.3795)"><path
             d="m 0,0 c -4.346,1.412 -5.877,6.657 -2.974,10.188 1.622,1.974 4.37,2.777 6.8,1.989 C 8.179,10.764 9.712,5.51 6.801,1.981 5.176,0.011 2.429,-0.789 0,0 m 16.031,1.329 -2.898,2.376 c 0.162,0.761 0.248,1.528 0.252,2.293 l 3.367,1.707 c 0.309,0.157 0.483,0.559 0.386,0.892 l -1.041,3.569 c -0.098,0.334 -0.46,0.579 -0.806,0.545 l -3.758,-0.372 c -0.427,0.66 -0.93,1.276 -1.495,1.844 l 1.159,3.543 c 0.108,0.33 -0.053,0.738 -0.358,0.905 L 7.581,20.417 C 7.276,20.584 6.846,20.501 6.625,20.232 L 4.238,17.321 C 3.483,17.478 2.723,17.56 1.966,17.562 l -1.687,3.325 c -0.157,0.31 -0.559,0.484 -0.893,0.387 l -3.568,-1.041 c -0.334,-0.098 -0.579,-0.461 -0.545,-0.807 l 0.37,-3.733 C -4.99,15.281 -5.582,14.801 -6.13,14.263 l -3.56,1.165 c -0.331,0.108 -0.738,-0.053 -0.906,-0.358 l -1.786,-3.259 c -0.167,-0.305 -0.084,-0.736 0.186,-0.957 L -9.302,8.481 C -9.466,7.714 -9.553,6.94 -9.558,6.17 l -3.308,-1.678 c -0.31,-0.157 -0.484,-0.559 -0.387,-0.893 l 1.042,-3.569 c 0.097,-0.333 0.459,-0.578 0.805,-0.544 l 3.691,0.366 c 0.406,-0.628 0.879,-1.218 1.411,-1.765 l -1.17,-3.577 c -0.108,-0.331 0.053,-0.739 0.358,-0.906 l 3.259,-1.787 c 0.306,-0.167 0.736,-0.084 0.957,0.186 l 2.363,2.881 c 0.773,-0.168 1.555,-0.26 2.332,-0.268 l 1.697,-3.347 c 0.158,-0.311 0.56,-0.485 0.895,-0.388 l 3.568,1.042 c 0.333,0.097 0.578,0.459 0.543,0.804 L 8.13,-3.557 c 0.656,0.422 1.269,0.918 1.835,1.475 l 3.555,-1.162 c 0.332,-0.109 0.74,0.053 0.907,0.358 l 1.786,3.259 c 0.171,0.306 0.088,0.734 -0.182,0.956"
             style="fill:#3d3d3d;fill-opacity:1;fill-rule:nonzero;stroke:none"
             id="path66" /></g><g
           id="g68"
           transform="translate(325.136,274.021)"><path
             d="m 0,0 c -5.055,12.727 -9.376,22.98 -10.771,24.327 -3.248,3.137 -16.055,11.775 -20.528,13.141 -0.095,0.045 -0.185,0.096 -0.281,0.138 -12.439,5.509 -27.339,14.57 -27.339,14.57 H -91.6 l -27.292,-14.54 c -0.363,-0.16 -0.716,-0.338 -1.059,-0.527 -5.129,-2.116 -16.51,-9.851 -19.546,-12.782 -1.395,-1.347 -5.716,-11.6 -10.771,-24.327 z"
             style="fill:#2e2e30;fill-opacity:1;fill-rule:nonzero;stroke:none"
             id="path70" /></g><g
           id="g72"
           transform="translate(230.1796,398.4317)"><path
             d="m 0,0 -28.58,-34.095 c -8.517,-10.161 -6.766,-24.845 3.936,-32.994 l 44.514,-33.895 44.514,33.895 c 10.701,8.149 12.453,22.833 3.935,32.994 L 39.739,0 C 29.623,12.068 10.116,12.068 0,0"
             style="fill:#2e2e30;fill-opacity:1;fill-rule:nonzero;stroke:none"
             id="path74" /></g><g
           id="g76"
           transform="translate(233.505,320.5751)"><path
             d="m 0,0 c -5.515,4.782 -9.759,11.889 -11.947,20.257 -0.251,-0.054 -0.506,-0.092 -0.768,-0.092 -2.581,0 -4.763,2.733 -5.483,6.492 -5.242,-2.482 -9.6,-5.512 -12.767,-8.932 1.254,-1.791 2.806,-3.414 4.634,-4.806 L 0,-7.131 Z"
             style="fill:#efefef;fill-opacity:1;fill-rule:nonzero;stroke:none"
             id="path78" /></g><g
           id="g80"
           transform="translate(284.7914,347.2322)"><path
             d="m 0,0 c -0.72,-3.759 -2.902,-6.492 -5.483,-6.492 -0.262,0 -0.517,0.038 -0.769,0.092 -2.187,-8.368 -6.431,-15.475 -11.946,-20.257 v -7.131 l 26.331,20.05 c 1.828,1.392 3.38,3.015 4.634,4.805 C 9.6,-5.512 5.242,-2.482 0,0"
             style="fill:#efefef;fill-opacity:1;fill-rule:nonzero;stroke:none"
             id="path82" /></g><g
           id="g84"
           transform="translate(200.8432,339.8708)"><path
             d="m 0,0 c 0,0 0.285,0.304 0.82,0.874 0.267,0.285 0.596,0.637 0.984,1.05 0.421,0.382 0.905,0.822 1.447,1.314 0.532,0.508 1.178,0.997 1.877,1.537 0.35,0.27 0.713,0.552 1.091,0.844 0.395,0.267 0.804,0.544 1.226,0.831 0.425,0.283 0.856,0.589 1.315,0.88 0.467,0.277 0.947,0.562 1.44,0.854 0.974,0.612 2.065,1.127 3.186,1.701 1.115,0.587 2.339,1.062 3.573,1.629 1.265,0.487 2.564,1.026 3.931,1.487 2.727,0.941 5.654,1.799 8.736,2.444 3.079,0.652 6.292,1.189 9.581,1.519 3.283,0.389 6.643,0.502 9.999,0.57 3.341,-0.064 6.713,-0.18 9.999,-0.568 3.289,-0.33 6.502,-0.867 9.581,-1.519 3.082,-0.647 6.01,-1.5 8.737,-2.444 1.367,-0.46 2.666,-1 3.931,-1.487 1.234,-0.568 2.457,-1.043 3.573,-1.63 1.121,-0.573 2.211,-1.09 3.185,-1.7 0.494,-0.293 0.974,-0.578 1.441,-0.855 0.459,-0.29 0.889,-0.597 1.314,-0.88 C 91.39,6.165 91.799,5.887 92.194,5.62 92.571,5.328 92.935,5.046 93.285,4.776 93.983,4.235 94.63,3.747 95.16,3.239 95.702,2.748 96.185,2.309 96.606,1.927 96.994,1.512 97.325,1.16 97.593,0.874 98.127,0.304 98.412,0 98.412,0 c 0,0 -0.306,0.284 -0.879,0.815 -0.285,0.265 -0.638,0.592 -1.052,0.976 -0.44,0.355 -0.946,0.762 -1.512,1.217 -0.551,0.475 -1.218,0.926 -1.936,1.425 -0.359,0.249 -0.733,0.508 -1.12,0.776 -0.404,0.244 -0.823,0.497 -1.255,0.759 -0.434,0.257 -0.873,0.537 -1.34,0.8 -0.475,0.249 -0.963,0.505 -1.465,0.768 -0.987,0.551 -2.073,1.04 -3.196,1.566 -1.116,0.542 -2.34,0.973 -3.57,1.492 -1.263,0.441 -2.556,0.931 -3.917,1.341 -1.363,0.406 -2.755,0.84 -4.211,1.176 -1.442,0.379 -2.93,0.708 -4.447,1.027 -3.039,0.609 -6.208,1.105 -9.451,1.396 -3.235,0.35 -6.535,0.423 -9.855,0.46 C 45.901,15.961 42.589,15.885 39.351,15.536 36.108,15.245 32.938,14.749 29.9,14.139 28.383,13.818 26.894,13.493 25.452,13.113 23.997,12.778 22.604,12.343 21.241,11.938 19.88,11.527 18.587,11.037 17.324,10.596 16.094,10.076 14.87,9.646 13.755,9.103 12.631,8.578 11.546,8.087 10.557,7.538 10.056,7.275 9.568,7.018 9.093,6.769 8.626,6.506 8.187,6.227 7.753,5.969 7.321,5.708 6.902,5.455 6.498,5.211 6.111,4.942 5.737,4.683 5.378,4.434 4.66,3.935 3.993,3.483 3.444,3.01 2.878,2.555 2.373,2.148 1.933,1.794 1.518,1.409 1.165,1.081 0.878,0.815 0.305,0.284 0,0 0,0"
             style="fill:#efefef;fill-opacity:1;fill-rule:nonzero;stroke:none"
             id="path86" /></g><g
           id="g88"
           transform="translate(239.6185,303.4655)"><path
             d="M 0,0 C 0,0 0.232,-0.012 0.615,0.096 0.992,0.194 1.527,0.497 1.857,1.078 2.016,1.364 2.12,1.72 2.131,2.068 2.141,2.447 2.055,2.814 1.872,3.149 1.686,3.479 1.41,3.757 1.086,3.955 0.741,4.145 0.407,4.256 0,4.253 -0.767,4.269 -1.504,3.812 -1.874,3.15 -1.962,2.986 -2.039,2.801 -2.075,2.631 -2.101,2.551 -2.109,2.441 -2.123,2.343 -2.131,2.265 -2.133,2.163 -2.133,2.076 -2.12,1.712 -2.017,1.367 -1.857,1.078 -1.527,0.497 -0.992,0.194 -0.615,0.096 -0.233,-0.012 0,0 0,0 m 0,0 c 0,0 -0.231,-0.019 -0.621,0.076 -0.382,0.098 -0.935,0.344 -1.377,0.908 -0.218,0.279 -0.395,0.639 -0.475,1.053 -0.035,0.217 -0.055,0.424 -0.035,0.644 0.013,0.239 0.067,0.457 0.144,0.686 0.16,0.45 0.465,0.876 0.887,1.177 C -1.061,4.855 -0.528,5.01 0,5.023 0.505,5.014 1.075,4.853 1.478,4.545 1.9,4.244 2.207,3.819 2.366,3.368 2.699,2.46 2.442,1.536 1.999,0.983 1.556,0.419 1.003,0.174 0.621,0.076 0.231,-0.019 0,0 0,0"
             style="fill:#ffffff;fill-opacity:1;fill-rule:nonzero;stroke:none"
             id="path90" /></g><g
           id="g92"
           transform="translate(239.6185,278.3963)"><path
             d="m 0,0 v 0 c -0.663,0 -1.201,0.538 -1.201,1.201 v 24.986 c 0,0.663 0.538,1.201 1.201,1.201 0.663,0 1.201,-0.538 1.201,-1.201 V 1.201 C 1.201,0.538 0.663,0 0,0"
             style="fill:#ffffff;fill-opacity:1;fill-rule:nonzero;stroke:none"
             id="path94" /></g><g
           id="g96"
           transform="translate(260.3854,303.4655)"><path
             d="M 0,0 C 0,0 0.232,-0.012 0.615,0.096 0.992,0.194 1.527,0.497 1.857,1.078 2.016,1.364 2.12,1.72 2.131,2.068 2.141,2.447 2.055,2.814 1.872,3.149 1.686,3.479 1.41,3.757 1.086,3.955 0.733,4.146 0.427,4.256 -0.02,4.253 -0.365,4.26 -0.764,4.144 -1.087,3.957 -1.411,3.759 -1.689,3.481 -1.874,3.15 -1.962,2.986 -2.039,2.801 -2.075,2.631 -2.101,2.551 -2.109,2.441 -2.123,2.343 -2.131,2.265 -2.133,2.163 -2.133,2.076 -2.12,1.712 -2.017,1.367 -1.858,1.078 -1.527,0.497 -0.992,0.194 -0.615,0.096 -0.233,-0.012 0,0 0,0 m 0,0 c 0,0 -0.231,-0.019 -0.621,0.076 -0.382,0.098 -0.935,0.344 -1.377,0.908 -0.218,0.279 -0.395,0.639 -0.475,1.053 -0.035,0.217 -0.055,0.424 -0.035,0.644 0.013,0.239 0.067,0.457 0.144,0.686 0.16,0.45 0.465,0.876 0.887,1.177 0.425,0.311 0.929,0.466 1.496,0.478 C 0.219,5.018 0.542,4.976 0.781,4.897 1.031,4.815 1.27,4.699 1.478,4.545 1.9,4.244 2.207,3.819 2.366,3.368 2.699,2.46 2.442,1.536 1.999,0.983 1.556,0.419 1.003,0.174 0.621,0.076 0.231,-0.019 0,0 0,0"
             style="fill:#ffffff;fill-opacity:1;fill-rule:nonzero;stroke:none"
             id="path98" /></g><g
           id="g100"
           transform="translate(260.3854,278.3963)"><path
             d="m 0,0 v 0 c -0.664,0 -1.201,0.538 -1.201,1.201 v 24.986 c 0,0.663 0.537,1.201 1.201,1.201 0.663,0 1.201,-0.538 1.201,-1.201 V 1.201 C 1.201,0.538 0.663,0 0,0"
             style="fill:#ffffff;fill-opacity:1;fill-rule:nonzero;stroke:none"
             id="path102" /></g><g
           id="g104"
           transform="translate(333.9623,281.6056)"><path
             d="m 0,0 v -91.399 c 0,-3.513 -2.848,-6.361 -6.361,-6.361 H -161.56 c -3.513,0 -6.361,2.848 -6.361,6.361 V 0 c 0,3.513 2.848,6.361 6.361,6.361 H -6.361 C -2.848,6.361 0,3.513 0,0"
             style="fill:#3d3d3d;fill-opacity:1;fill-rule:nonzero;stroke:none"
             id="path106" /></g><g
           id="g108"
           transform="translate(326.5028,276.8727)"><path
             d="m 0,0 v -76.234 c 0,-2.243 -1.94,-4.062 -4.335,-4.062 h -144.33 c -1.28,0 -2.431,0.519 -3.225,1.348 -0.692,0.718 -1.112,1.671 -1.112,2.714 V 0 c 0,2.243 1.942,4.062 4.337,4.062 h 144.33 c 0.801,0 1.55,-0.203 2.193,-0.558 C -0.86,2.799 0,1.493 0,0"
             style="fill:#efefef;fill-opacity:1;fill-rule:nonzero;stroke:none"
             id="path110" /></g><g
           id="g112"
           transform="translate(326.5028,276.8727)"><path
             d="m 0,0 v -76.234 c 0,-2.243 -1.94,-4.062 -4.335,-4.062 h -144.33 c -1.28,0 -2.431,0.519 -3.225,1.348 -0.692,0.718 -1.112,1.671 -1.112,2.714 V 0 c 0,2.243 1.942,4.062 4.337,4.062 h 144.33 c 0.801,0 1.55,-0.203 2.193,-0.558 C -0.86,2.799 0,1.493 0,0"
             style="fill:#efefef;fill-opacity:1;fill-rule:nonzero;stroke:none"
             id="path114" /></g><g
           id="g116"
           transform="translate(259.0683,246.4448)"><path
             d="M 0,0 V -0.889 H -18.133 V 0 3.644 c 0,4.999 4.068,9.066 9.067,9.066 C -4.067,12.71 0,8.643 0,3.644 Z m -5.673,-24.563 c 0.035,-0.32 -0.067,-0.641 -0.282,-0.882 -0.215,-0.24 -0.523,-0.377 -0.845,-0.377 h -4.533 c -0.322,0 -0.63,0.137 -0.844,0.377 -0.215,0.241 -0.318,0.562 -0.282,0.882 l 0.714,6.428 c -1.161,0.845 -1.854,2.181 -1.854,3.646 0,2.5 2.033,4.533 4.533,4.533 2.5,0 4.533,-2.033 4.533,-4.533 0,-1.465 -0.694,-2.801 -1.855,-3.646 z M 10.2,-0.889 H 6.8 V 0 3.644 c 0,8.748 -7.118,15.866 -15.866,15.866 -8.749,0 -15.866,-7.118 -15.866,-15.866 V 0 -0.889 h -3.4 c -0.627,0 -1.134,-0.507 -1.134,-1.134 v -28.332 c 0,-2.5 2.034,-4.533 4.534,-4.533 H 6.8 c 2.5,0 4.533,2.033 4.533,4.533 v 28.332 c 0,0.627 -0.507,1.134 -1.133,1.134"
             style="fill:#3d3d3d;fill-opacity:1;fill-rule:nonzero;stroke:none"
             id="path118" /></g><g
           id="g120"
           transform="translate(197.2248,255.7583)"><path
             d="m 0,0 h 24.613 c 0.664,0 1.203,0.539 1.203,1.203 0,0.664 -0.539,1.203 -1.203,1.203 H 0 C -0.664,2.406 -1.203,1.867 -1.203,1.203 -1.203,0.539 -0.664,0 0,0"
             style="fill:#3d3d3d;fill-opacity:1;fill-rule:nonzero;stroke:none"
             id="path122" /></g><g
           id="g124"
           transform="translate(185.3786,251.9368)"><path
             d="m 0,0 h 37.06 c 0.333,0 0.602,0.269 0.602,0.601 0,0.333 -0.269,0.602 -0.602,0.602 L 0,1.203 C -0.332,1.203 -0.601,0.934 -0.601,0.601 -0.601,0.269 -0.332,0 0,0"
             style="fill:#3d3d3d;fill-opacity:1;fill-rule:nonzero;stroke:none"
             id="path126" /></g><g
           id="g128"
           transform="translate(185.3786,249.0278)"><path
             d="m 0,0 h 37.06 c 0.333,0 0.602,0.269 0.602,0.601 0,0.333 -0.269,0.602 -0.602,0.602 L 0,1.203 C -0.332,1.203 -0.601,0.934 -0.601,0.601 -0.601,0.269 -0.332,0 0,0"
             style="fill:#3d3d3d;fill-opacity:1;fill-rule:nonzero;stroke:none"
             id="path130" /></g><g
           id="g132"
           transform="translate(185.3786,246.1189)"><path
             d="m 0,0 h 37.06 c 0.333,0 0.602,0.269 0.602,0.601 0,0.333 -0.269,0.602 -0.602,0.602 L 0,1.203 C -0.332,1.203 -0.601,0.934 -0.601,0.601 -0.601,0.269 -0.332,0 0,0"
             style="fill:#3d3d3d;fill-opacity:1;fill-rule:nonzero;stroke:none"
             id="path134" /></g><g
           id="g136"
           transform="translate(185.3786,243.21)"><path
             d="m 0,0 h 37.06 c 0.333,0 0.602,0.269 0.602,0.601 0,0.333 -0.269,0.602 -0.602,0.602 L 0,1.203 C -0.332,1.203 -0.601,0.934 -0.601,0.601 -0.601,0.269 -0.332,0 0,0"
             style="fill:#3d3d3d;fill-opacity:1;fill-rule:nonzero;stroke:none"
             id="path138" /></g><g
           id="g140"
           transform="translate(302.7791,230.3346)"><path
             d="m 0,0 h -24.613 c -0.664,0 -1.203,0.539 -1.203,1.203 0,0.664 0.539,1.203 1.203,1.203 H 0 C 0.664,2.406 1.203,1.867 1.203,1.203 1.203,0.539 0.664,0 0,0"
             style="fill:#3d3d3d;fill-opacity:1;fill-rule:nonzero;stroke:none"
             id="path142" /></g><g
           id="g144"
           transform="translate(314.6253,226.5131)"><path
             d="m 0,0 h -37.06 c -0.332,0 -0.602,0.269 -0.602,0.601 0,0.333 0.27,0.602 0.602,0.602 L 0,1.203 C 0.332,1.203 0.601,0.934 0.601,0.601 0.601,0.269 0.332,0 0,0"
             style="fill:#3d3d3d;fill-opacity:1;fill-rule:nonzero;stroke:none"
             id="path146" /></g><g
           id="g148"
           transform="translate(314.6253,223.6042)"><path
             d="m 0,0 h -37.06 c -0.332,0 -0.602,0.269 -0.602,0.601 0,0.333 0.27,0.602 0.602,0.602 L 0,1.203 C 0.332,1.203 0.601,0.934 0.601,0.601 0.601,0.269 0.332,0 0,0"
             style="fill:#3d3d3d;fill-opacity:1;fill-rule:nonzero;stroke:none"
             id="path150" /></g><g
           id="g152"
           transform="translate(295.4937,220.6953)"><path
             d="m 0,0 h -17.929 c -0.332,0 -0.601,0.269 -0.601,0.601 0,0.333 0.269,0.602 0.601,0.602 L 0,1.203 C 0.332,1.203 0.601,0.934 0.601,0.601 0.601,0.269 0.332,0 0,0"
             style="fill:#3d3d3d;fill-opacity:1;fill-rule:nonzero;stroke:none"
             id="path154" /></g><g
           id="g156"
           transform="translate(207.637,222.9031)"><path
             d="M 0,0 C -0.371,0.327 -0.785,0.59 -1.228,0.784 -0.951,0.42 -0.73,0.005 -0.557,-0.423 -0.363,-0.297 -0.177,-0.156 0,0"
             style="fill:#3d3d3d;fill-opacity:1;fill-rule:nonzero;stroke:none"
             id="path158" /></g><g
           id="g160"
           transform="translate(204.1605,214.6472)"><path
             d="M 0,0 V 2.297 C -0.565,2.257 -1.11,2.118 -1.615,1.888 -1.321,1.132 -0.779,0.225 0,0"
             style="fill:#3d3d3d;fill-opacity:1;fill-rule:nonzero;stroke:none"
             id="path162" /></g><g
           id="g164"
           transform="translate(202.0677,219.6864)"><path
             d="M 0,0 H 2.093 V 1.355 C 1.454,1.395 0.837,1.545 0.263,1.796 0.114,1.24 0.024,0.633 0,0"
             style="fill:#3d3d3d;fill-opacity:1;fill-rule:nonzero;stroke:none"
             id="path166" /></g><g
           id="g168"
           transform="translate(202.5459,222.145)"><path
             d="M 0,0 C 0.505,-0.23 1.05,-0.369 1.615,-0.409 V 1.888 C 0.835,1.663 0.294,0.756 0,0"
             style="fill:#3d3d3d;fill-opacity:1;fill-rule:nonzero;stroke:none"
             id="path170" /></g><g
           id="g172"
           transform="translate(202.3305,217.1978)"><path
             d="M 0,0 C 0.574,0.251 1.191,0.401 1.83,0.44 V 1.796 H -0.263 C -0.239,1.163 -0.149,0.556 0,0"
             style="fill:#3d3d3d;fill-opacity:1;fill-rule:nonzero;stroke:none"
             id="path174" /></g><g
           id="g176"
           transform="translate(202.6046,223.6872)"><path
             d="M 0,0 C -0.443,-0.194 -0.857,-0.457 -1.228,-0.784 -1.051,-0.94 -0.865,-1.081 -0.671,-1.207 -0.498,-0.779 -0.277,-0.364 0,0"
             style="fill:#3d3d3d;fill-opacity:1;fill-rule:nonzero;stroke:none"
             id="path178" /></g><g
           id="g180"
           transform="translate(201.7026,221.8075)"><path
             d="m 0,0 c -0.286,0.173 -0.558,0.374 -0.812,0.601 -0.654,-0.768 -1.042,-1.714 -1.114,-2.722 h 1.598 C -0.301,-1.373 -0.189,-0.654 0,0"
             style="fill:#3d3d3d;fill-opacity:1;fill-rule:nonzero;stroke:none"
             id="path182" /></g><g
           id="g184"
           transform="translate(201.3768,215.7771)"><path
             d="M 0,0 C 0.371,-0.327 0.784,-0.59 1.228,-0.784 0.951,-0.42 0.73,-0.005 0.557,0.423 0.363,0.297 0.176,0.156 0,0"
             style="fill:#3d3d3d;fill-opacity:1;fill-rule:nonzero;stroke:none"
             id="path186" /></g><g
           id="g188"
           transform="translate(201.3746,218.9937)"><path
             d="m 0,0 h -1.598 c 0.072,-1.008 0.46,-1.954 1.114,-2.722 0.254,0.227 0.526,0.428 0.812,0.601 C 0.139,-1.467 0.027,-0.748 0,0"
             style="fill:#3d3d3d;fill-opacity:1;fill-rule:nonzero;stroke:none"
             id="path190" /></g><g
           id="g192"
           transform="translate(206.946,218.9937)"><path
             d="m 0,0 h -2.093 v -1.355 c 0.639,-0.04 1.256,-0.19 1.83,-0.441 C -0.114,-1.24 -0.024,-0.633 0,0"
             style="fill:#3d3d3d;fill-opacity:1;fill-rule:nonzero;stroke:none"
             id="path194" /></g><g
           id="g196"
           transform="translate(207.3112,216.8727)"><path
             d="M 0,0 C 0.286,-0.173 0.558,-0.374 0.812,-0.601 1.466,0.167 1.854,1.113 1.926,2.121 H 0.328 C 0.301,1.373 0.189,0.654 0,0"
             style="fill:#3d3d3d;fill-opacity:1;fill-rule:nonzero;stroke:none"
             id="path198" /></g><g
           id="g200"
           transform="translate(207.3112,221.8074)"><path
             d="M 0,0 C 0.189,-0.654 0.301,-1.373 0.328,-2.121 H 1.926 C 1.854,-1.113 1.466,-0.167 0.812,0.601 0.558,0.374 0.286,0.173 0,0"
             style="fill:#3d3d3d;fill-opacity:1;fill-rule:nonzero;stroke:none"
             id="path202" /></g><g
           id="g204"
           transform="translate(204.8533,224.033)"><path
             d="m 0,0 v -2.297 c 0.565,0.04 1.109,0.179 1.615,0.409 C 1.321,-1.132 0.779,-0.225 0,0"
             style="fill:#3d3d3d;fill-opacity:1;fill-rule:nonzero;stroke:none"
             id="path206" /></g><g
           id="g208"
           transform="translate(208.3503,215.4966)"><path
             d="m 0,0 c -2.124,-2.124 -5.563,-2.124 -7.687,0 -2.124,2.124 -2.124,5.563 0,7.687 2.125,2.124 5.563,2.124 7.687,0 C 2.124,5.562 2.124,2.124 0,0 m 7.597,9.972 c -0.033,0.717 -0.033,1.402 -0.033,2.086 0,0.554 -0.424,0.978 -0.978,0.978 -4.074,0 -7.17,1.173 -9.745,3.683 -0.391,0.358 -0.977,0.358 -1.368,0 -2.575,-2.51 -5.671,-3.683 -9.745,-3.683 -0.554,0 -0.978,-0.424 -0.978,-0.978 0,-0.684 0,-1.369 -0.033,-2.086 -0.13,-6.844 -0.325,-16.23 11.114,-20.174 l 0.326,-0.065 0.326,0.065 C 7.89,-6.258 7.727,3.096 7.597,9.972"
             style="fill:#3d3d3d;fill-opacity:1;fill-rule:nonzero;stroke:none"
             id="path210" /></g><g
           id="g212"
           transform="translate(206.409,214.993)"><path
             d="M 0,0 C 0.443,0.194 0.857,0.457 1.228,0.784 1.051,0.94 0.865,1.081 0.671,1.207 0.498,0.779 0.277,0.364 0,0"
             style="fill:#3d3d3d;fill-opacity:1;fill-rule:nonzero;stroke:none"
             id="path214" /></g><g
           id="g216"
           transform="translate(206.6834,221.4823)"><path
             d="M 0,0 C -0.574,-0.251 -1.191,-0.401 -1.83,-0.441 V -1.796 H 0.263 C 0.239,-1.163 0.149,-0.556 0,0"
             style="fill:#3d3d3d;fill-opacity:1;fill-rule:nonzero;stroke:none"
             id="path218" /></g><g
           id="g220"
           transform="translate(204.8533,216.9443)"><path
             d="m 0,0 v -2.297 c 0.779,0.225 1.321,1.132 1.615,1.888 C 1.109,-0.179 0.565,-0.04 0,0"
             style="fill:#3d3d3d;fill-opacity:1;fill-rule:nonzero;stroke:none"
             id="path222" /></g><g
           id="g224"
           transform="translate(292.7291,258.1792)"><path
             d="m 0,0 -3.71,-5.176 c -0.104,-0.144 -0.07,-0.345 0.074,-0.448 0.072,-0.052 0.158,-0.07 0.24,-0.056 0.081,0.013 0.157,0.058 0.209,0.13 l 3.71,5.175 C 0.626,-0.23 0.593,-0.029 0.449,0.074 0.304,0.177 0.104,0.144 0,0"
             style="fill:#3d3d3d;fill-opacity:1;fill-rule:nonzero;stroke:none"
             id="path226" /></g><g
           id="g228"
           transform="translate(296.9689,265.4935)"><path
             d="m 0,0 c -0.875,-0.144 -1.469,-0.974 -1.325,-1.848 0.144,-0.875 0.974,-1.47 1.848,-1.325 0.875,0.144 1.47,0.973 1.325,1.848 C 1.704,-0.45 0.875,0.144 0,0"
             style="fill:#3d3d3d;fill-opacity:1;fill-rule:nonzero;stroke:none"
             id="path230" /></g><g
           id="g232"
           transform="translate(295.7059,256.9206)"><path
             d="m 0,0 -0.19,-0.614 c -0.031,-0.098 -0.107,-0.177 -0.205,-0.21 -0.098,-0.033 -0.206,-0.017 -0.29,0.044 l -0.478,0.343 -4.052,-5.654 C -5.265,-6.16 -5.34,-6.207 -5.424,-6.221 L -7.963,-6.64 c -0.176,-0.029 -0.341,0.09 -0.37,0.265 l -0.419,2.539 c -0.013,0.084 0.007,0.17 0.056,0.24 l 0.983,1.37 -0.083,0.503 c -0.029,0.176 0.089,0.341 0.265,0.37 l 0.503,0.083 0.375,0.523 -0.083,0.503 c -0.029,0.176 0.089,0.341 0.265,0.37 l 0.503,0.083 0.375,0.523 -0.083,0.503 c -0.029,0.175 0.089,0.341 0.265,0.37 l 0.503,0.083 0.265,0.369 -0.478,0.343 c -0.084,0.06 -0.134,0.157 -0.134,0.261 0,0.103 0.049,0.2 0.133,0.261 l 0.52,0.377 C -4.73,3.631 -4.823,3.967 -4.878,4.3 c -0.462,2.8 1.44,5.454 4.24,5.915 2.8,0.462 5.453,-1.44 5.915,-4.24 C 5.794,2.842 3.34,-0.141 0,0 m -2.393,15.361 c -7.541,0 -13.654,-6.113 -13.654,-13.654 0,-7.54 6.113,-13.653 13.654,-13.653 7.54,0 13.653,6.113 13.653,13.653 0,7.541 -6.113,13.654 -13.653,13.654"
             style="fill:#3d3d3d;fill-opacity:1;fill-rule:nonzero;stroke:none"
             id="path234" /></g><g
           id="g236"><g
             id="g238" /><g
             id="g250"><g
               clip-path="url(#clipPath242)"
               opacity="0.149994"
               id="g248"><g
                 transform="translate(321.9819,280.9348)"
                 id="g246"><path
                   d="m 0,0 h -144.144 c -2.395,0 -4.337,-1.819 -4.337,-4.062 v -76.234 c 0,-1.043 0.42,-1.996 1.112,-2.714 z"
                   style="fill:#1c1c1a;fill-opacity:1;fill-rule:nonzero;stroke:none"
                   id="path244" /></g></g></g></g><g
           id="g252"
           transform="translate(349.648,187.4662)"><path
             d="m 0,0 v -0.579 c 0,-2.882 -0.924,-5.547 -2.493,-7.715 -2.393,-3.31 -6.288,-5.463 -10.685,-5.463 h -172.936 c -4.397,0 -8.292,2.153 -10.685,5.463 -1.569,2.168 -2.493,4.833 -2.493,7.715 V 0 Z"
             style="fill:#2e2e30;fill-opacity:1;fill-rule:nonzero;stroke:none"
             id="path254" /></g><g
           id="g256"
           transform="translate(251.4735,180.5874)"><path
             d="m 0,0 c 0,-1.052 -0.853,-1.905 -1.905,-1.905 -1.052,0 -1.905,0.853 -1.905,1.905 0,1.052 0.853,1.905 1.905,1.905 C -0.853,1.905 0,1.052 0,0"
             style="fill:#efefef;fill-opacity:1;fill-rule:nonzero;stroke:none"
             id="path258" /></g><g
           id="g260"
           transform="translate(244.7447,180.5874)"><path
             d="m 0,0 c 0,-1.052 -0.853,-1.905 -1.905,-1.905 -1.052,0 -1.905,0.853 -1.905,1.905 0,1.052 0.853,1.905 1.905,1.905 C -0.853,1.905 0,1.052 0,0"
             style="fill:#efefef;fill-opacity:1;fill-rule:nonzero;stroke:none"
             id="path262" /></g><g
           id="g264"
           transform="translate(258.2023,180.5874)"><path
             d="m 0,0 c 0,-1.052 -0.853,-1.905 -1.905,-1.905 -1.052,0 -1.905,0.853 -1.905,1.905 0,1.052 0.853,1.905 1.905,1.905 C -0.853,1.905 0,1.052 0,0"
             style="fill:#efefef;fill-opacity:1;fill-rule:nonzero;stroke:none"
             id="path266" /></g><g
           id="g268"
           transform="translate(325.0101,180.5874)"><path
             d="m 0,0 c 0,-1.052 -0.853,-1.905 -1.905,-1.905 -1.052,0 -1.905,0.853 -1.905,1.905 0,1.052 0.853,1.905 1.905,1.905 C -0.853,1.905 0,1.052 0,0"
             style="fill:#efefef;fill-opacity:1;fill-rule:nonzero;stroke:none"
             id="path270" /></g><g
           id="g272"
           transform="translate(331.739,180.5874)"><path
             d="m 0,0 c 0,-1.052 -0.853,-1.905 -1.905,-1.905 -1.052,0 -1.905,0.853 -1.905,1.905 0,1.052 0.853,1.905 1.905,1.905 C -0.853,1.905 0,1.052 0,0"
             style="fill:#efefef;fill-opacity:1;fill-rule:nonzero;stroke:none"
             id="path274" /></g><g
           id="g276"
           transform="translate(227.6657,187.4662)"><path
             d="m 0,0 v -0.132 c 0,-1.044 0.699,-1.89 1.561,-1.89 h 40.684 c 0.862,0 1.561,0.846 1.561,1.89 V 0 Z"
             style="fill:#efefef;fill-opacity:1;fill-rule:nonzero;stroke:none"
             id="path278" /></g></g></g><text
       transform="matrix(1,0,0,-1,94.5508,126.084)"
       style="font-variant:normal;font-weight:normal;font-stretch:normal;font-size:40px;font-family:Roboto;-inkscape-font-specification:Roboto-Regular;writing-mode:lr-tb;fill:#2e2e30;fill-opacity:1;fill-rule:nonzero;stroke:none"
       id="text282"><tspan
         x="0 26.040001 50.080002 75 97.720001"
         y="0"
         id="tspan280">CYBER</tspan></text><text
       transform="matrix(1,0,0,-1,216.8708,126.084)"
       style="font-variant:normal;font-weight:900;font-stretch:normal;font-size:40px;font-family:'Roboto Black';-inkscape-font-specification:Roboto-Black;writing-mode:lr-tb;fill:#2e2e30;fill-opacity:1;fill-rule:nonzero;stroke:none"
       id="text286"><tspan
         x="0 25.040001 47.439999 73.68 100.28 126.36 137.85201 163.38"
         y="0"
         id="tspan284">SECURITY</tspan></text><text
       transform="matrix(1,0,0,-1,156.7598,97.9375)"
       style="font-variant:normal;font-weight:normal;font-stretch:normal;font-size:20px;font-family:Roboto;-inkscape-font-specification:Roboto-Regular;writing-mode:lr-tb;fill:#3d3d3d;fill-opacity:1;fill-rule:nonzero;stroke:none"
       id="text290"><tspan
         x="0 11.86 21.992001 35.751999 49.372002 62.411999 76.671997 81.632004 95.251999 109.012 120.372 132.23199 137.192 151.452 162.812 175.132"
         y="0"
         id="tspan288">SLOGAN GOES HERE</tspan></text></g></svg>
