<svg width="109" height="26" viewBox="0 0 109 26" fill="none" xmlns="http://www.w3.org/2000/svg">
<path d="M18.92 2.248V19H15.56V8.104L11.072 19H8.528L4.016 8.104V19H0.656V2.248H4.472L9.8 14.704L15.128 2.248H18.92ZM23.9459 4.12C23.3539 4.12 22.8579 3.936 22.4579 3.568C22.0739 3.184 21.8819 2.712 21.8819 2.152C21.8819 1.592 22.0739 1.128 22.4579 0.759999C22.8579 0.375999 23.3539 0.183999 23.9459 0.183999C24.5379 0.183999 25.0259 0.375999 25.4099 0.759999C25.8099 1.128 26.0099 1.592 26.0099 2.152C26.0099 2.712 25.8099 3.184 25.4099 3.568C25.0259 3.936 24.5379 4.12 23.9459 4.12ZM25.6019 5.704V19H22.2419V5.704H25.6019ZM34.1296 5.488C35.1216 5.488 35.9936 5.688 36.7456 6.088C37.4976 6.472 38.0896 6.976 38.5216 7.6V5.704H41.9056V19.096C41.9056 20.328 41.6576 21.424 41.1616 22.384C40.6656 23.36 39.9216 24.128 38.9296 24.688C37.9376 25.264 36.7376 25.552 35.3296 25.552C33.4416 25.552 31.8896 25.112 30.6736 24.232C29.4736 23.352 28.7936 22.152 28.6336 20.632H31.9696C32.1456 21.24 32.5216 21.72 33.0976 22.072C33.6896 22.44 34.4016 22.624 35.2336 22.624C36.2096 22.624 37.0016 22.328 37.6096 21.736C38.2176 21.16 38.5216 20.28 38.5216 19.096V17.032C38.0896 17.656 37.4896 18.176 36.7216 18.592C35.9696 19.008 35.1056 19.216 34.1296 19.216C33.0096 19.216 31.9856 18.928 31.0576 18.352C30.1296 17.776 29.3936 16.968 28.8496 15.928C28.3216 14.872 28.0576 13.664 28.0576 12.304C28.0576 10.96 28.3216 9.768 28.8496 8.728C29.3936 7.688 30.1216 6.888 31.0336 6.328C31.9616 5.768 32.9936 5.488 34.1296 5.488ZM38.5216 12.352C38.5216 11.536 38.3616 10.84 38.0416 10.264C37.7216 9.672 37.2896 9.224 36.7456 8.92C36.2016 8.6 35.6176 8.44 34.9936 8.44C34.3696 8.44 33.7936 8.592 33.2656 8.896C32.7376 9.2 32.3056 9.648 31.9696 10.24C31.6496 10.816 31.4896 11.504 31.4896 12.304C31.4896 13.104 31.6496 13.808 31.9696 14.416C32.3056 15.008 32.7376 15.464 33.2656 15.784C33.8096 16.104 34.3856 16.264 34.9936 16.264C35.6176 16.264 36.2016 16.112 36.7456 15.808C37.2896 15.488 37.7216 15.04 38.0416 14.464C38.3616 13.872 38.5216 13.168 38.5216 12.352ZM57.7393 5.704V19H54.3553V17.32C53.9233 17.896 53.3553 18.352 52.6513 18.688C51.9633 19.008 51.2113 19.168 50.3953 19.168C49.3553 19.168 48.4353 18.952 47.6353 18.52C46.8353 18.072 46.2033 17.424 45.7393 16.576C45.2913 15.712 45.0673 14.688 45.0673 13.504V5.704H48.4273V13.024C48.4273 14.08 48.6913 14.896 49.2193 15.472C49.7473 16.032 50.4673 16.312 51.3793 16.312C52.3073 16.312 53.0353 16.032 53.5633 15.472C54.0913 14.896 54.3553 14.08 54.3553 13.024V5.704H57.7393ZM73.4144 12.064C73.4144 12.544 73.3824 12.976 73.3184 13.36H63.5984C63.6784 14.32 64.0144 15.072 64.6064 15.616C65.1984 16.16 65.9264 16.432 66.7904 16.432C68.0384 16.432 68.9264 15.896 69.4544 14.824H73.0784C72.6944 16.104 71.9584 17.16 70.8704 17.992C69.7824 18.808 68.4464 19.216 66.8624 19.216C65.5824 19.216 64.4304 18.936 63.4064 18.376C62.3984 17.8 61.6064 16.992 61.0304 15.952C60.4704 14.912 60.1904 13.712 60.1904 12.352C60.1904 10.976 60.4704 9.768 61.0304 8.728C61.5904 7.688 62.3744 6.888 63.3824 6.328C64.3904 5.768 65.5504 5.488 66.8624 5.488C68.1264 5.488 69.2544 5.76 70.2464 6.304C71.2544 6.848 72.0304 7.624 72.5744 8.632C73.1344 9.624 73.4144 10.768 73.4144 12.064ZM69.9344 11.104C69.9184 10.24 69.6064 9.552 68.9984 9.04C68.3904 8.512 67.6464 8.248 66.7664 8.248C65.9344 8.248 65.2304 8.504 64.6544 9.016C64.0944 9.512 63.7504 10.208 63.6224 11.104H69.9344ZM79.2269 1.24V19H75.8669V1.24H79.2269ZM91.5774 2.248V12.616C91.5774 13.752 91.8734 14.624 92.4654 15.232C93.0574 15.824 93.8894 16.12 94.9614 16.12C96.0494 16.12 96.8894 15.824 97.4814 15.232C98.0734 14.624 98.3694 13.752 98.3694 12.616V2.248H101.753V12.592C101.753 14.016 101.441 15.224 100.817 16.216C100.209 17.192 99.3854 17.928 98.3454 18.424C97.3214 18.92 96.1774 19.168 94.9134 19.168C93.6654 19.168 92.5294 18.92 91.5054 18.424C90.4974 17.928 89.6974 17.192 89.1054 16.216C88.5134 15.224 88.2174 14.016 88.2174 12.592V2.248H91.5774ZM108.36 2.248V19H105V2.248H108.36Z" fill="white"/>
</svg>
