<svg width="388" height="339" viewBox="0 0 388 339" fill="none" xmlns="http://www.w3.org/2000/svg">
<g clip-path="url(#clip0_172_5899)">
<path d="M262.842 325.038C263.21 325.055 263.576 324.957 263.887 324.759C264.199 324.561 264.443 324.272 264.585 323.93C264.728 323.588 264.762 323.211 264.684 322.849C264.605 322.487 264.418 322.159 264.147 321.907C264.101 321.726 264.069 321.596 264.023 321.415C264.039 321.376 264.056 321.336 264.072 321.297C264.444 320.417 265.066 319.666 265.862 319.14C266.657 318.613 267.59 318.334 268.543 318.338C269.496 318.341 270.427 318.627 271.218 319.16C272.01 319.692 272.627 320.447 272.992 321.33C274.45 324.854 276.308 328.385 276.765 332.111C276.966 333.758 276.881 335.428 276.514 337.046C279.94 329.549 281.719 321.4 281.731 313.153C281.732 311.084 281.617 309.016 281.388 306.959C281.198 305.273 280.935 303.599 280.598 301.937C278.762 292.919 274.819 284.466 269.093 277.273C266.322 275.756 264.081 273.424 262.672 270.591C262.162 269.572 261.801 268.485 261.601 267.362C261.914 267.403 262.231 267.429 262.544 267.45C262.641 267.455 262.744 267.46 262.841 267.465L262.878 267.467C263.221 267.482 263.562 267.398 263.859 267.224C264.156 267.049 264.396 266.793 264.551 266.485C264.706 266.177 264.768 265.83 264.732 265.487C264.695 265.144 264.56 264.819 264.343 264.551C264.208 264.385 264.073 264.218 263.938 264.052C263.733 263.795 263.523 263.543 263.318 263.286C263.294 263.262 263.272 263.236 263.251 263.209C263.015 262.916 262.78 262.628 262.544 262.335C262.974 261.665 263.553 261.104 264.235 260.695C266.598 259.307 269.857 260.269 271.563 262.412C273.275 264.556 273.598 267.563 273.004 270.241C272.419 272.52 271.452 274.682 270.144 276.636C270.272 276.8 270.405 276.96 270.533 277.124C272.875 280.145 274.917 283.388 276.628 286.809C276.212 282.977 276.708 279.101 278.077 275.5C279.464 272.143 282.064 269.316 284.353 266.415C287.104 262.929 292.743 264.451 293.227 268.869C293.232 268.911 293.237 268.954 293.241 268.997C292.901 269.189 292.568 269.394 292.242 269.61C291.833 269.884 291.516 270.276 291.333 270.734C291.149 271.192 291.108 271.695 291.215 272.177C291.321 272.659 291.57 273.097 291.929 273.434C292.288 273.772 292.741 273.993 293.227 274.068L293.277 274.076C293.156 275.305 292.942 276.523 292.636 277.72C291.752 281.061 290.188 284.183 288.045 286.89C285.901 289.597 283.223 291.83 280.178 293.45C279.978 293.553 279.783 293.656 279.584 293.753C281.303 298.64 282.381 303.731 282.792 308.897C283.024 311.945 283.01 315.006 282.751 318.052L282.766 317.944C283.422 314.557 285.223 311.502 287.865 309.293C291.789 306.059 297.333 304.869 301.567 302.27C302.016 301.98 302.54 301.825 303.074 301.824C303.609 301.823 304.133 301.975 304.584 302.262C305.035 302.55 305.395 302.961 305.621 303.447C305.847 303.933 305.93 304.474 305.86 305.005C305.854 305.043 305.849 305.081 305.843 305.119C305.212 305.376 304.597 305.674 304.003 306.008C303.663 306.2 303.33 306.405 303.004 306.621C302.595 306.895 302.278 307.287 302.095 307.745C301.911 308.203 301.87 308.706 301.977 309.188C302.083 309.67 302.332 310.108 302.691 310.445C303.05 310.783 303.503 311.004 303.989 311.079L304.039 311.087C304.075 311.092 304.105 311.097 304.141 311.102C303.063 313.685 301.55 316.062 299.667 318.129C297.342 320.632 294.532 322.632 291.409 324.006C288.286 325.381 284.916 326.101 281.505 326.122H281.5C280.574 330.158 279.233 334.085 277.498 337.843H263.2C263.149 337.683 263.103 337.519 263.056 337.359C264.38 337.443 265.709 337.363 267.013 337.123C265.952 335.817 264.891 334.501 263.83 333.196C263.807 333.171 263.784 333.145 263.764 333.119C263.226 332.45 262.682 331.787 262.144 331.119L262.144 331.118C262.115 329.07 262.35 327.026 262.841 325.038L262.842 325.038Z" fill="white"/>
<path d="M214.925 49.2564C214.925 58.9186 219.744 68.7508 229.377 68.7508C239.009 68.7508 252.3 61.7528 249.31 46.7571C247.421 37.2825 241.999 31.7614 232.367 31.7614V66.7514C235.816 66.7514 239.188 65.7253 242.057 63.803C244.925 61.8806 247.16 59.1482 248.48 55.9515C249.801 52.7547 250.146 49.237 249.473 45.8433C248.8 42.4496 247.139 39.3323 244.7 36.8856C242.26 34.4389 239.153 32.7726 235.769 32.0976C232.386 31.4225 228.879 31.769 225.692 33.0931C222.505 34.4173 219.781 36.6597 217.864 39.5367C215.948 42.4137 214.925 45.7962 214.925 49.2564Z" fill="#2F2E41"/>
<path d="M255.333 187.304C254.808 186.72 254.417 186.028 254.187 185.276C253.958 184.524 253.896 183.731 254.005 182.952C254.115 182.173 254.393 181.428 254.821 180.769C255.248 180.11 255.815 179.553 256.48 179.137L252.263 160.496L261.532 163.994L264.115 181.16C264.737 182.327 264.911 183.683 264.603 184.97C264.295 186.258 263.527 187.387 262.445 188.145C261.362 188.902 260.04 189.235 258.729 189.08C257.419 188.925 256.21 188.293 255.333 187.304V187.304Z" fill="#FFB6B6"/>
<path d="M235.659 121.231L242.128 121.892C242.128 121.892 240.437 131.504 243.082 133.669C245.728 135.835 244.662 135.824 244.646 137.429C244.631 139.034 245.672 141.718 247.79 143.344C249.907 144.969 254.311 173.913 254.311 173.913L263.91 174.005C263.624 171.516 263.648 169 263.982 166.517C264.551 162.778 267.427 153.359 266.376 151.744C265.325 150.129 265.878 147.159 265.909 143.95C265.94 140.741 261.363 144.287 261.414 138.938C261.465 133.589 255.594 100.026 256.174 95.2168C256.753 90.4079 250.928 86.0724 250.928 86.0724L245.596 86.0211L235.659 121.231Z" fill="#6C63FF"/>
<path d="M166.984 76.0914C166.822 76.8186 166.822 77.5725 166.982 78.3C167.143 79.0275 167.46 79.7108 167.913 80.3018C168.365 80.8928 168.941 81.3772 169.6 81.7208C170.259 82.0644 170.985 82.2589 171.727 82.2905L176.917 99.6375L182.935 92.4166L177.084 77.0507C177.054 75.7966 176.567 74.597 175.715 73.6792C174.862 72.7614 173.704 72.1892 172.459 72.0709C171.214 71.9527 169.969 72.2966 168.959 73.0376C167.95 73.7786 167.247 74.8651 166.984 76.0913V76.0914Z" fill="#FFB6B6"/>
<path d="M221.773 81.7414C221.773 81.7414 209.227 77.023 202.425 102.863L193.396 112.243L185.81 98.4935L186.813 95.2318L180.951 81.9002L170.899 87.6865L173.373 96.8394L172.955 101.364L175.357 104.178L179.289 118.723L181.749 123.475C181.749 123.475 184.851 129.559 190.266 130.562C191.709 130.833 193.186 130.875 194.643 130.686C197.494 130.313 200.619 128.995 203.83 126.085C215.745 115.291 222.791 106.965 222.791 106.965L221.773 81.7414Z" fill="#6C63FF"/>
<path d="M161.29 87.2371L183.623 65.6171C183.745 65.4992 183.817 65.339 183.825 65.1695C183.832 64.9999 183.774 64.834 183.663 64.7058C183.553 64.5776 183.397 64.497 183.228 64.4805C183.06 64.4641 182.892 64.513 182.758 64.6173L159.078 83.1228L161.29 87.2371Z" fill="#2F2E41"/>
<path d="M152.092 89.6336C153.212 90.0283 154.375 90.2888 155.556 90.4098C156.157 90.4691 156.76 90.4904 157.358 90.4975C157.568 90.5049 157.78 90.5058 157.989 90.5084C158.486 90.5157 158.982 90.5231 159.484 90.5287C159.907 90.537 160.334 90.5434 160.755 90.5469C161.375 90.5566 162.056 90.5436 162.501 90.1067C162.689 89.8864 162.826 89.627 162.901 89.3471C162.977 89.0673 162.99 88.7741 162.94 88.4886C162.841 87.8916 162.66 87.3111 162.404 86.7634C161.868 85.4699 161.327 84.1782 160.792 82.8848L160.875 82.1608C159.891 82.018 158.89 82.0488 157.917 82.2519C157.519 82.3537 157.146 82.5352 156.82 82.7854C156.494 83.0356 156.222 83.3493 156.021 83.7078C155.936 83.8689 155.868 84.0387 155.82 84.2142C155.61 84.9849 155.761 85.8403 155.671 86.6467C155.65 86.8145 155.619 86.9808 155.578 87.1448C155.463 87.6297 155.243 88.0832 154.933 88.4729C154.623 88.8625 154.231 89.1788 153.785 89.399C153.253 89.6339 152.667 89.7151 152.092 89.6336Z" fill="#CFCFDE"/>
<path d="M150.521 89.0068C150.987 89.3384 151.526 89.5533 152.092 89.6336C151.558 89.4512 151.034 89.242 150.521 89.0068Z" fill="white"/>
<path d="M152.092 89.6336C153.212 90.0282 154.375 90.2888 155.556 90.4098C156.157 90.4691 156.76 90.4903 157.358 90.4975C157.568 90.5049 157.781 90.5057 157.989 90.5084C158.486 90.5157 158.983 90.5231 159.484 90.5287C159.46 90.2762 159.422 90.0251 159.371 89.7764C158.903 87.456 157.542 85.4828 156.021 83.7078C155.936 83.8689 155.869 84.0387 155.82 84.2141C155.61 84.9849 155.761 85.8403 155.671 86.6467C155.65 86.8145 155.619 86.9808 155.578 87.1448C155.463 87.6297 155.243 88.0832 154.933 88.4728C154.623 88.8625 154.231 89.1787 153.785 89.399C153.253 89.6339 152.667 89.7151 152.092 89.6336Z" fill="#6C63FF"/>
<path d="M238.601 125.009L239.488 129.251L240.243 144.898L209.926 140.781L207.599 122.662L210.816 117.359L238.601 125.009Z" fill="#FFB6B6"/>
<path d="M216.177 61.0092C212.376 54.0348 214.932 45.2902 221.885 41.4776C228.838 37.665 237.556 40.2282 241.357 47.2027C245.158 54.1771 242.602 62.9216 235.649 66.7342C228.696 70.5468 219.978 67.9836 216.177 61.0092Z" fill="#FFB6B6"/>
<path d="M250.383 105.509L254.328 95.2269C254.33 90.9224 252.878 86.7442 250.209 83.3739C247.539 80.0037 243.81 77.6403 239.629 76.6693L239.575 76.6566L236.738 72.8221L225.211 73.9787L223.098 78.3098L214.746 83.2985L205.246 94.4559C202.254 96.6106 200.477 99.3735 199.963 102.669C198.871 109.664 203.754 116.663 204.335 117.466L205.832 125.92L240.434 130.894L240.698 130.927L250.383 105.509Z" fill="#6C63FF"/>
<path d="M243.783 57.8789C243.653 57.8583 243.523 57.8308 243.393 57.8102C241.155 57.412 238.917 57.0207 236.685 56.6156L236.48 51.5423L233.776 56.087C227.61 58.1397 221.84 56.9795 216.413 54.4188C214.622 53.5663 212.885 52.6057 211.211 51.5423C210.043 44.396 212.989 38.7641 220.553 38.0452C220.788 38.0229 220.957 37.8256 221.162 37.7225C221.163 37.7225 221.164 37.7223 221.165 37.722C221.166 37.7217 221.167 37.7212 221.167 37.7205C221.168 37.7199 221.169 37.7191 221.169 37.7183C221.169 37.7174 221.169 37.7165 221.169 37.7156C221.518 37.5509 221.874 37.393 222.23 37.2488C225.017 36.1566 228.055 35.88 230.991 36.4512C233.928 37.0223 236.643 38.4178 238.821 40.4755C243.201 44.6702 245.172 51.5972 243.783 57.8789Z" fill="#2F2E41"/>
<path d="M217.467 302.188L209.236 305.982L190.73 275.939L202.878 270.34L217.467 302.188Z" fill="#FFB6B6"/>
<path d="M217.642 297.174L204.273 302.393L206.835 307.985L198.39 322.257C197.973 322.962 197.792 323.782 197.872 324.598C197.952 325.414 198.291 326.182 198.838 326.792C199.384 327.401 200.111 327.819 200.911 327.984C201.712 328.15 202.544 328.055 203.286 327.712L218.778 320.572L218.914 313.81L222.491 318.86L228.332 316.168L217.642 297.174Z" fill="#2F2E41"/>
<path d="M253.45 320.828H244.391L240.082 285.779L253.452 285.779L253.45 320.828Z" fill="#FFB6B6"/>
<path d="M258.377 248.909L258.377 248.815L254.974 242.933L258.449 235.277L258.695 188.745C260.064 155.119 240.615 138.954 240.462 138.796L240.04 138.356L208.85 137.59C208.85 137.59 192.456 185.863 179.433 229.359C178.663 231.93 176.486 234.465 177.163 237.01C182.534 257.197 188.907 280.045 192.998 280.69L205.955 273.692L203.547 238.706L205.027 234.899C207.68 234.409 214.574 207.569 214.574 207.569C215.73 206.193 215.67 202.451 215.67 202.451L224.701 192.94L233.025 236.779L230.967 249.854L232.67 254.35L239.965 291.466L240.042 292.064L253.795 290.687L258.377 248.909Z" fill="#2F2E41"/>
<path d="M256.518 316.345L242.198 315.488V321.642L228.583 331.074C227.91 331.54 227.404 332.209 227.137 332.984C226.871 333.759 226.858 334.599 227.102 335.381C227.345 336.164 227.831 336.848 228.489 337.334C229.148 337.819 229.943 338.081 230.761 338.081H247.81L250.748 331.994L251.896 338.081H258.324L256.518 316.345Z" fill="#2F2E41"/>
<path d="M238.286 37.3582V37.3704C238.284 38.1237 238.38 38.874 238.571 39.6026C238.601 39.7303 238.637 39.8641 238.68 39.9918V39.9979C239.086 41.2989 239.788 42.4878 240.73 43.4713C241.671 44.4548 242.827 45.2061 244.107 45.6665C244.295 45.7395 244.489 45.8003 244.683 45.8551C245.091 45.974 245.509 46.0594 245.932 46.1105C246.311 46.1645 246.694 46.1909 247.078 46.1896C247.377 46.1909 247.677 46.1766 247.975 46.147C248.673 46.0761 249.359 45.9188 250.019 45.6787C250.122 45.6486 250.223 45.612 250.322 45.5692C250.371 45.5515 250.42 45.5312 250.467 45.5084C251.567 45.0465 252.562 44.3652 253.392 43.5059C254.221 42.6465 254.868 41.6271 255.293 40.5094C255.718 39.3916 255.912 38.199 255.863 37.0038C255.814 35.8087 255.524 34.6359 255.009 33.5568L255.003 33.5507C254.572 32.6454 253.987 31.8221 253.275 31.1178C251.686 29.5304 250.986 25.552 248.573 25.552C248.457 25.55 248.342 25.554 248.227 25.5642C246.608 25.6189 243.615 29.1229 242.342 29.9501C241.396 30.5493 240.577 31.3283 239.929 32.2431C239.252 33.1841 238.77 34.2511 238.51 35.3815C238.361 36.0298 238.286 36.6929 238.286 37.3582Z" fill="#2F2E41"/>
<path d="M249.028 34.2872C250.393 35.8818 252.531 36.5016 254.46 37.3314C257.863 38.8291 260.851 41.137 263.165 44.055C265.478 46.973 267.047 50.4129 267.735 54.0766C268.268 57.0607 268.199 60.1498 269.041 63.059C269.878 65.9682 271.951 68.8224 274.926 69.3272C276.939 69.6721 278.958 68.8923 280.851 68.1226C281.893 67.7027 282.934 67.2811 283.976 66.8579C282.889 64.1237 281.805 61.3895 280.722 58.6553C282.462 61.2356 284.487 63.6116 286.756 65.7382C290.489 64.2287 294.225 62.7191 297.964 61.2095C288.765 61.2445 290.334 52.2871 288.276 43.2997C287.145 38.3611 277.512 35.017 275.624 30.3184C274.603 27.7699 272.876 25.5679 270.647 23.9732C268.418 22.3785 265.78 21.4578 263.045 21.32C260.31 21.1823 257.594 21.8332 255.216 23.1958C252.839 24.5584 250.901 26.5756 249.631 29.0088C247.742 29.7635 247.687 32.7127 249.028 34.2872Z" fill="#2F2E41"/>
<path d="M209.956 139.793C207.839 140.347 205.887 141.405 204.266 142.878C202.645 144.351 201.402 146.195 200.644 148.254C200.235 149.437 199.979 150.841 200.683 151.966C200.898 152.37 201.252 152.681 201.678 152.844C202.105 153.006 202.575 153.008 203.003 152.849C203.922 152.469 204.555 151.527 205.022 150.692C205.641 149.512 206.173 148.288 206.614 147.03C207.336 145.131 208.875 141.962 206.677 140.478C204.828 139.23 202.38 139.715 200.3 139.629C198.052 139.536 195.553 138.673 194.755 136.336C193.978 134.063 195.799 131.925 197.762 131.06C198.942 130.57 200.224 130.377 201.496 130.498C202.768 130.62 203.991 131.052 205.057 131.758C207.165 133.223 208.671 135.407 209.293 137.903C209.338 138.093 209.308 138.292 209.21 138.459C209.111 138.627 208.951 138.749 208.764 138.801C208.577 138.853 208.378 138.83 208.207 138.737C208.037 138.644 207.909 138.488 207.852 138.302C207.234 136.042 205.899 133.915 203.816 132.757C201.865 131.672 199.19 131.605 197.37 133.009C196.47 133.704 195.763 134.859 196.224 136.007C196.647 137.06 197.749 137.686 198.797 137.94C201.169 138.516 203.65 137.771 206.015 138.531C208.269 139.256 209.568 141.105 209.243 143.506C208.997 144.854 208.599 146.17 208.056 147.428C207.594 148.722 207.055 149.986 206.44 151.214C205.502 152.993 203.809 154.919 201.576 154.398C199.03 153.803 198.426 150.822 198.971 148.629C200.215 143.629 204.68 139.625 209.558 138.347C209.747 138.302 209.946 138.332 210.113 138.431C210.28 138.53 210.402 138.69 210.453 138.878C210.505 139.065 210.482 139.265 210.389 139.436C210.296 139.607 210.141 139.735 209.956 139.793Z" fill="#2F2E41"/>
<path d="M187.584 276.363C188.641 275.109 190.148 274.344 191.613 273.612L203.904 267.471L204.254 269.659C204.719 268.22 207 268.114 207.925 269.309C208.849 270.504 208.553 272.311 207.651 273.523C206.75 274.735 205.38 275.492 204.054 276.212C201.113 277.809 198.172 279.405 195.232 281.001C193.861 281.745 192.447 282.503 190.898 282.673C189.35 282.843 187.615 282.283 186.843 280.926C186.033 279.5 186.527 277.616 187.584 276.363Z" fill="#2F2E41"/>
<path d="M235.397 287.798C236.901 287.15 238.59 287.141 240.227 287.142C244.804 287.146 249.381 287.149 253.958 287.153L253.297 289.267C254.354 288.188 256.442 289.115 256.737 290.598C257.032 292.082 255.963 293.566 254.617 294.246C253.27 294.927 251.708 294.991 250.201 295.041C246.858 295.152 243.516 295.263 240.174 295.374C238.617 295.426 237.014 295.471 235.553 294.929C234.092 294.387 232.789 293.109 232.703 291.549C232.612 289.91 233.893 288.446 235.397 287.798Z" fill="#2F2E41"/>
<path d="M158.221 191.092C178.36 191.092 200.244 187.067 221.982 179.326C248.863 169.754 273.51 155.306 293.259 137.544L292.674 136.367C273.021 154.044 248.483 168.426 221.713 177.958C197.521 186.573 173.148 190.564 151.237 189.511L151.199 190.925C153.513 191.037 155.854 191.093 158.221 191.092Z" fill="white"/>
<path d="M338.639 117.373C354.775 96.0067 348.376 71.6211 357.829 54.6091C394.061 -10.5919 349.446 -4.58483 299.005 8.09465L298.885 9.50124C330.989 14.4708 352.102 31.0442 356.812 54.9713C360.472 73.5667 353.755 95.3698 337.9 116.364L338.639 117.373Z" fill="white"/>
<path d="M182.952 193.215C203.091 193.215 226.236 170.799 246.713 181.449C308.713 213.697 300.178 159.736 317.99 139.667L317.405 138.491C297.752 156.167 273.214 170.549 246.444 180.081C222.252 188.696 197.879 192.687 175.968 191.634L175.93 193.048C178.244 193.16 180.585 193.216 182.952 193.215Z" fill="white"/>
<path d="M136.751 184.314L137.088 182.973C119.077 174.782 120.624 150.385 104.51 144.814C-18.2458 102.374 102.927 97.5878 130.183 75.1391C154.556 55.0643 181.119 31.7246 214.878 19.704L214.608 18.3355C180.703 30.409 150.478 50.1984 129.504 74.0584C108.423 98.0381 99.1857 123.295 103.492 145.176C106.889 162.43 118.389 175.964 136.751 184.314Z" fill="white"/>
<path d="M302.139 193.807C323.816 158.256 352.617 126.5 388 107.569L387.123 106.786C371.436 138.57 341.103 169.015 301.712 192.513L302.139 193.807Z" fill="white"/>
<path d="M163.008 234.703C167.089 234.703 171.241 234.581 175.462 234.336L175.416 232.921C144.283 250.689 116.509 246.464 95.0356 218.255L94.642 219.569C113.037 229.538 136.482 234.703 163.008 234.703Z" fill="white"/>
<path d="M156.627 221.17C154.302 221.17 152.417 218.635 152.417 215.508C152.417 212.381 154.302 209.846 156.627 209.846C158.952 209.846 160.836 212.381 160.836 215.508C160.836 218.635 158.952 221.17 156.627 221.17Z" fill="#FD6584"/>
<path d="M298.838 117.586C298.489 115.28 300.705 113.031 303.787 112.561C306.869 112.092 309.651 113.581 310 115.886C310.349 118.192 308.133 120.441 305.051 120.911C301.968 121.38 299.187 119.892 298.838 117.586Z" fill="white"/>
<path d="M318.217 56.1499C315.892 56.1499 314.008 53.6149 314.008 50.4878C314.008 47.3607 315.892 44.8257 318.217 44.8257C320.542 44.8257 322.427 47.3607 322.427 50.4878C322.427 53.6149 320.542 56.1499 318.217 56.1499Z" fill="white"/>
<path d="M308.651 88.5782C314.141 80.9034 324.503 76.9374 331.795 79.7198C339.087 82.5022 340.548 90.9795 335.058 98.6543C329.568 106.329 313.407 118.401 306.115 115.619C298.823 112.837 303.161 96.253 308.651 88.5782ZM308.617 112.184C309.515 113.504 311.717 113.565 313.536 112.321C315.355 111.076 316.102 108.997 315.204 107.677C314.307 106.357 312.105 106.296 310.286 107.541C308.467 108.785 307.72 110.864 308.617 112.184Z" fill="#2F2E41"/>
<path d="M314.849 96.0854C315.532 96.6398 316.216 97.1941 316.9 97.7484C317.739 98.5246 318.733 99.1137 319.815 99.4769C321.301 99.8214 322.855 99.7286 324.29 99.2096C326.382 98.5318 328.215 97.2249 329.541 95.4663L328.064 95.7969C328.848 94.8865 329.485 93.8588 329.953 92.7511C330.3 91.723 330.106 90.6796 329.171 90.398C328.1 90.0757 326.376 90.8003 325.477 90.2794C323.922 89.3787 326.478 86.0243 325.061 84.9896C324.236 84.3867 322.584 84.9832 321.207 85.5747C319.494 86.2292 317.871 87.0986 316.376 88.1621C313.93 90.0567 312.576 93.043 313.575 94.7715C313.917 95.2834 314.348 95.7287 314.849 96.0854Z" fill="#C5C2FF"/>
<path d="M315.353 101.841C316.548 102.005 317.932 101.083 319.086 100.232L319.379 99.8466C319.619 99.1084 319.721 98.3318 319.677 97.5565C319.65 97.1973 319.502 96.858 319.257 96.5943C319.012 96.3306 318.686 96.1581 318.33 96.1051C317.629 96.0124 316.693 96.3158 316.23 95.9088C315.334 95.1219 317.411 92.9527 316.462 92.2163C315.929 91.803 314.796 92.3329 314.308 93.0433C313.909 93.7056 313.725 94.4757 313.781 95.2474C313.765 96.3806 313.749 97.5139 313.733 98.6471C313.683 99.3162 313.75 99.989 313.933 100.635C314.033 100.949 314.219 101.229 314.47 101.442C314.721 101.655 315.027 101.793 315.353 101.841Z" fill="#2F2E41"/>
<path d="M315.053 105.617C316.71 105.126 319.237 103.413 321.39 101.9L322.031 101.34C322.702 100.577 323.271 99.7288 323.723 98.8174C323.971 98.1351 323.652 97.7365 322.551 98.0661C321.577 98.3578 320.043 99.187 319.589 99.0236C318.712 98.7075 322.938 95.3269 321.954 95.0927C321.402 94.9613 319.456 96.1322 318.352 97.1335C317.54 97.8564 316.869 98.7248 316.373 99.6942C315.728 100.87 315.083 102.046 314.438 103.222C314.049 103.809 313.778 104.467 313.64 105.158C313.626 105.659 314.047 105.915 315.053 105.617Z" fill="#FD6584"/>
<path d="M80.4629 13.8648C79.8127 5.60867 74.3657 15.3508 66.1347 16.003C64.177 16.1573 62.2688 16.697 60.519 17.5913C58.7693 18.4855 57.2123 19.7168 55.9371 21.2147C54.6619 22.7127 53.6934 24.4479 53.0869 26.3214C52.4804 28.1949 52.2478 30.1699 52.4025 32.1336C52.5571 34.0972 53.096 36.0111 53.9882 37.7658C54.8804 39.5206 56.1086 41.0818 57.6025 42.3603C59.0963 43.6389 60.8267 44.6096 62.6947 45.2172C64.5627 45.8248 66.5318 46.0572 68.4894 45.9013C76.7204 45.2491 81.1131 22.121 80.4629 13.8648Z" fill="#C5C2FF"/>
<path d="M29.2194 93.1375C29.0648 91.1743 28.5263 89.2609 27.6344 87.5066C26.7426 85.7522 25.5151 84.1912 24.0218 82.9127C22.5286 81.6342 20.7989 80.6633 18.9316 80.0553C17.0643 79.4473 15.0958 79.2142 13.1387 79.3693C4.9077 80.0215 -0.598291 63.626 0.0519333 71.8822C0.70216 80.1384 7.26236 109.92 15.4933 109.268C17.4505 109.112 19.358 108.572 21.107 107.678C22.856 106.783 24.4122 105.552 25.6868 104.054C26.9614 102.556 27.9294 100.821 28.5355 98.9482C29.1417 97.0751 29.374 95.1006 29.2194 93.1375Z" fill="#C5C2FF"/>
<path d="M10.4569 111.208C12.7072 112.296 15.3069 111.655 17.2497 110.218C19.4595 108.583 20.5488 105.984 20.9088 103.317C21.2552 100.454 21.0169 97.5512 20.2083 94.7841C19.4403 92.1148 17.7941 89.3445 14.8532 88.794C12.893 88.427 10.8012 89.2658 10.2579 91.3076C10.0514 92.1265 10.0588 92.985 10.2793 93.8002C10.4998 94.6154 10.9259 95.36 11.5167 95.9619C13.2759 97.6573 16.0993 97.5282 18.1426 96.4508C20.5457 95.1835 21.8718 92.6479 22.3094 90.0408C22.8297 86.9413 22.1029 83.8268 21.0689 80.9109C19.945 77.7417 18.5455 74.6674 17.2599 71.5622C14.7529 65.5066 12.3977 59.3206 11.3992 52.8086C9.87395 42.8607 12.249 31.0546 20.9438 24.9649C25.6375 21.6776 31.5239 20.7463 37.1238 21.4539C43.0293 22.2 48.4561 24.7993 53.2617 28.241C55.7615 30.0633 58.1354 32.0532 60.3674 34.197C61.0439 34.8949 61.912 35.3752 62.8614 35.577C63.8107 35.7787 64.7984 35.6928 65.699 35.3302C70.3202 33.4436 68.8475 25.9007 64.0839 25.3387C61.9194 25.0833 59.6902 26.2946 58.2221 27.8081C56.6205 29.5258 55.5753 31.69 55.2242 34.0153C54.4093 38.9098 56.2185 44.0835 59.361 47.8248C62.9112 52.0515 68.3064 54.4309 73.5584 55.6843C79.538 57.1112 85.6882 57.184 91.8005 57.3196C98.0554 57.4584 104.384 57.6969 110.422 59.4969C115.281 60.9606 119.865 63.2203 123.989 66.1846C132.298 72.1048 138.516 80.5209 141.745 90.2174C142.504 92.5629 143.065 94.968 143.424 97.4075C143.565 98.3626 142.074 98.4766 141.934 97.5256C140.362 86.8916 134.622 77.1125 126.553 70.1119C122.528 66.6036 117.92 63.8309 112.94 61.9199C106.941 59.637 100.569 59.0581 94.202 58.8718C87.6995 58.6814 81.1382 58.7851 74.7327 57.4792C69.07 56.3248 63.3358 54.0604 59.2099 49.8668C55.572 46.1692 53.3213 40.8792 53.5627 35.6512C53.7874 30.7866 56.4584 25.5851 61.4066 24.1395C63.7284 23.4612 66.2209 23.8927 67.9455 25.6707C68.9041 26.6843 69.564 27.9446 69.8521 29.3116C70.1401 30.6786 70.0449 32.0989 69.5772 33.4149C68.9606 34.8448 67.8357 35.9935 66.4214 36.6373C65.007 37.2812 63.4045 37.3742 61.9256 36.8982C60.8396 36.4981 59.8589 35.855 59.0579 35.0177C54.3856 30.6293 49.157 26.602 43.0731 24.4167C37.3985 22.3784 30.8708 21.9604 25.2244 24.3111C14.5349 28.7614 11.3229 41.677 12.8169 52.1975C13.7947 59.0826 16.3934 65.6019 19.0517 71.9796C20.4091 75.2364 21.9177 78.4722 22.9568 81.8498C23.8871 84.8739 24.3542 88.119 23.5912 91.2346C22.9253 93.9539 21.349 96.4532 18.8275 97.7705C16.537 98.967 13.6306 99.1735 11.3866 97.7505C8.14235 95.6932 7.41255 90.0125 11.0565 87.9423C13.4743 86.5688 16.5704 87.2436 18.5757 89.0476C20.8238 91.0701 21.7421 94.0988 22.2056 96.9972C23.0813 102.474 22.3931 109.219 16.9999 112.149C14.7781 113.356 12.129 113.682 9.80637 112.559C9.6347 112.468 9.50482 112.314 9.44415 112.129C9.38347 111.945 9.39674 111.743 9.48112 111.568C9.56552 111.393 9.71446 111.257 9.89651 111.19C10.0786 111.123 10.2795 111.13 10.4569 111.208V111.208Z" fill="#2F2E41"/>
<path d="M143.728 93.5908C143.039 84.8355 154.982 61.4258 149.844 55.0889C149.207 54.2971 148.538 53.5311 147.838 52.7909C145.573 50.368 143.025 48.2281 140.248 46.4177C139.779 46.104 139.305 45.8055 138.828 45.5174C137.131 44.5021 135.365 43.6082 133.543 42.8424C133.213 42.7082 132.877 42.5743 132.542 42.4404C123.354 38.8743 113.202 38.6937 103.894 41.9307C94.5853 45.1677 86.7237 51.6123 81.708 60.1179C76.6922 68.6234 74.8476 78.6381 76.5023 88.3798C78.1571 98.1215 83.204 106.958 90.7448 113.318C91.1414 113.658 91.5472 113.986 91.9626 114.309C96.0843 117.538 100.778 119.954 105.795 121.432C105.8 121.431 105.801 121.436 105.806 121.436C113.33 123.639 121.32 123.675 128.863 121.539L128.873 121.538C129.04 121.49 129.206 121.442 129.371 121.389C147.821 115.92 145.304 113.598 143.728 93.5908Z" fill="#C5C2FF"/>
<path d="M133.563 43.0314C133.564 42.9678 133.557 42.9044 133.543 42.8424C133.213 42.7082 132.877 42.5743 132.542 42.4404C132.401 42.497 132.281 42.5951 132.197 42.7217C132.114 42.8484 132.07 42.9975 132.073 43.1495C132.07 43.9073 131.984 44.6625 131.815 45.4012C130.371 51.8134 123.827 55.551 117.984 57.1522C110.836 59.1176 103.155 59.1446 96.4859 62.6965C93.7455 64.0766 91.3815 66.1053 89.5981 68.6074C87.742 71.3548 86.9634 74.6934 87.4121 77.9816C88.4313 85.7179 94.3697 91.3645 96.8149 98.5466C97.8227 101.505 98.0707 104.655 96.9241 107.614C95.9523 110.127 94.0334 112.42 91.275 112.94C91.1634 112.957 91.0573 113 90.9652 113.066C90.8732 113.131 90.7977 113.218 90.7449 113.318C91.1416 113.657 91.5474 113.986 91.9627 114.309C92.4607 114.194 92.9451 114.026 93.408 113.809C96.0479 112.547 97.7542 110.03 98.6082 107.29C99.5931 104.118 99.2182 100.818 98.1153 97.7315C95.544 90.5344 89.1892 84.6149 88.7933 76.6687C88.4509 69.7814 94.0946 65.022 99.9827 62.7303C107.268 59.8966 115.434 60.3176 122.612 57.1364C128.258 54.6332 133.537 49.617 133.563 43.0314Z" fill="#2F2E41"/>
<path d="M140.248 46.4177C139.779 46.1039 139.305 45.8055 138.828 45.5174C138.772 45.5871 138.732 45.6679 138.711 45.7544C138.689 45.8409 138.686 45.931 138.702 46.0187C139.458 52.445 137.738 58.9183 133.894 64.1147C132.232 66.3947 130.197 68.3766 127.877 69.9766C125.448 71.6382 122.718 72.6418 120.022 73.768C117.37 74.8757 114.688 76.1762 112.767 78.3792C110.81 80.6252 109.988 83.5233 109.9 86.4586C109.693 93.4146 113.634 99.4802 114.448 106.25C114.81 109.27 114.377 112.268 112.696 114.853C111.242 117.084 108.965 118.708 106.233 118.604C105.33 118.565 105.389 119.884 106.184 120.077C106.238 120.09 106.294 120.098 106.35 120.099C109.529 120.218 112.249 118.258 113.93 115.678C115.889 112.679 116.373 109.176 115.877 105.671C114.912 98.8876 110.82 92.6183 111.437 85.5998C111.521 84.1269 111.914 82.6884 112.588 81.3773C113.262 80.0663 114.204 78.9119 115.351 77.989C117.715 76.142 120.602 75.1661 123.342 74.0264C126.08 72.945 128.629 71.4329 130.892 69.5472C133.103 67.6388 134.994 65.3882 136.496 62.8806C139.498 57.9479 140.815 52.1685 140.248 46.4177Z" fill="#2F2E41"/>
<path d="M149.844 55.0889C149.207 54.297 148.538 53.531 147.839 52.7909C148.808 56.6097 148.973 60.5891 148.324 64.4755C147.542 69.3653 145.543 73.9783 142.512 77.8876C140.992 79.8342 139.202 81.5516 137.195 82.9871C134.899 84.6231 132.362 86.0526 130.842 88.5197C127.545 93.8753 130.559 100.285 132.18 105.632C133.029 108.423 133.605 111.421 132.665 114.263C131.933 116.467 130.312 118.606 127.917 119.042C126.976 119.212 127.089 120.712 128.035 120.537C128.212 120.503 128.389 120.464 128.565 120.42C131.166 119.732 133.042 117.598 133.954 115.079C135.134 111.791 134.581 108.385 133.589 105.119C131.956 99.7483 128.599 92.7288 133.23 87.8691C135.183 85.819 137.829 84.5614 139.962 82.7126C141.875 81.0635 143.555 79.1609 144.956 77.0571C149.246 70.5964 150.988 62.7664 149.844 55.0889Z" fill="#2F2E41"/>
<path d="M121.282 162.126V161.163H137.375V138.7H138.332V161.163H156.776V143.816C157.098 144.07 157.416 144.332 157.731 144.601V161.163H169.912C170.048 161.481 170.178 161.802 170.301 162.126H157.731V181.001H173.339C173.324 181.324 173.302 181.643 173.275 181.964H157.731V197.022H169.376C169.233 197.345 169.083 197.664 168.925 197.98H157.731V210.638H156.776V197.98H138.332V210.638H137.375V197.98H121.282V197.022H137.375C137.375 195.044 136.987 193.086 136.233 191.259C135.478 189.432 134.373 187.772 132.979 186.373C131.585 184.975 129.929 183.866 128.108 183.109C126.286 182.353 124.334 181.963 122.362 181.964H121.282V181.001H137.375V162.126H121.282ZM138.332 197.022H156.776V181.964H138.332V197.022ZM138.332 181.001H156.776V180.623C156.775 178.194 156.298 175.788 155.371 173.544C154.444 171.3 153.086 169.261 151.373 167.543C149.661 165.825 147.627 164.463 145.39 163.533C143.152 162.604 140.754 162.125 138.332 162.126V181.001Z" fill="#2F2E41"/>
<path d="M166.807 338.846L304.221 339Cnan nan nan nan 304.221 339L166.807 337.656C166.729 337.656 166.651 337.671 166.579 337.701C166.507 337.731 166.441 337.774 166.386 337.83C166.331 337.885 166.287 337.951 166.257 338.023C166.227 338.095 166.212 338.173 166.212 338.251C166.212 338.33 166.227 338.407 166.257 338.479C166.287 338.552 166.331 338.617 166.386 338.673C166.441 338.728 166.507 338.772 166.579 338.802C166.651 338.831 166.729 338.847 166.807 338.846Z" fill="#CFCFDE"/>
</g>
<defs>
<clipPath id="clip0_172_5899">
<rect width="388" height="339" fill="white" transform="matrix(-1 0 0 1 388 0)"/>
</clipPath>
</defs>
</svg>
