<svg width="79" height="29" viewBox="0 0 79 29" fill="none" xmlns="http://www.w3.org/2000/svg">
<path d="M9.75461 1.25489C8.70089 1.25518 7.69043 1.64888 6.94533 2.34946C6.20024 3.05003 5.78153 4.00013 5.78122 4.99088V6.68807H3.97618C3.454 6.68766 2.93686 6.78408 2.45435 6.97179C1.97185 7.15949 1.53345 7.43483 1.16422 7.78201C0.794998 8.12918 0.502206 8.54142 0.302595 8.9951C0.102985 9.4488 0.000475699 9.93505 0.000932214 10.426V14.1607H5.78028V17.5551H3.97525C2.92123 17.555 1.91032 17.9485 1.16484 18.6491C0.419366 19.3497 0.000368188 20.3 0 21.291V27.7455H3.97711C4.49879 27.7453 5.01529 27.6485 5.49717 27.4605C5.97902 27.2726 6.41677 26.9972 6.78546 26.6502C7.15413 26.3032 7.44648 25.8912 7.64583 25.4379C7.84516 24.9845 7.94759 24.4989 7.94725 24.0084H7.95235V21.5425L7.94171 21.5438V5.83404L7.9505 5.836V4.99153C7.95141 4.54125 8.14173 4.10959 8.47991 3.79076C8.81806 3.47194 9.27664 3.29184 9.75554 3.28977H16.6584V4.99153C16.657 5.44161 16.466 5.87283 16.1273 6.19087C15.7886 6.50891 15.3298 6.68792 14.8511 6.68873H8.7674V8.72579H14.8501C15.9039 8.72584 16.9144 8.33233 17.6596 7.63183C18.4047 6.93132 18.8234 5.9812 18.8235 4.99045V1.25446L9.75461 1.25489ZM5.78122 12.1234H2.16975V10.4262C2.17054 9.97542 2.36108 9.54324 2.69975 9.22411C3.0384 8.905 3.49765 8.72489 3.97711 8.72318H5.78215L5.78122 12.1234ZM5.78122 24.0103C5.78042 24.4603 5.59005 24.8918 5.25177 25.2101C4.91348 25.5285 4.45482 25.708 3.97618 25.7091H2.16882V21.2921C2.16926 20.8418 2.35989 20.41 2.6988 20.0918C3.03773 19.7735 3.49717 19.5948 3.97618 19.595H5.78122V24.0103ZM8.7674 14.1605H13.3263V15.8594C13.3245 16.3094 13.1334 16.7405 12.7948 17.0584C12.4562 17.3764 11.9975 17.5555 11.5189 17.5566H8.7674V19.595H11.5198C12.0417 19.5952 12.5585 19.4988 13.0407 19.3111C13.5229 19.1235 13.9611 18.8483 14.3301 18.5013C14.6991 18.1543 14.9918 17.7424 15.1913 17.289C15.3909 16.8356 15.4935 16.3497 15.4932 15.859H15.4951V12.123H8.7674V14.1605Z" fill="#6C63FF"/>
<path d="M30.6609 12.5445H28.2117V20.7921H25.3821V12.5445H23.8235V11.1807L25.3821 10.42V9.65924C25.3821 8.47793 25.6728 7.61513 26.2542 7.07086C26.8355 6.52659 27.7664 6.25446 29.0466 6.25446C30.0238 6.25446 30.8928 6.3998 31.6536 6.69049L30.9299 8.76862C30.3609 8.58925 29.8352 8.49957 29.3528 8.49957C28.9508 8.49957 28.6601 8.62018 28.4807 8.86139C28.3014 9.09642 28.2117 9.39948 28.2117 9.77057V10.42H30.6609V12.5445Z" fill="#2F2E41"/>
<path d="M39.1414 20.7921L38.761 19.4654H38.6125C38.3095 19.9478 37.8796 20.322 37.323 20.588C36.7664 20.8477 36.1324 20.9776 35.4211 20.9776C34.2027 20.9776 33.2843 20.6529 32.6658 20.0035C32.0473 19.3479 31.738 18.4078 31.738 17.1832V10.42H34.5676V16.4781C34.5676 17.2265 34.7006 17.7893 34.9666 18.1666C35.2325 18.5377 35.6562 18.7232 36.2375 18.7232C37.0292 18.7232 37.6013 18.4603 37.9539 17.9346C38.3064 17.4027 38.4827 16.5245 38.4827 15.2999V10.42H41.3123V20.7921H39.1414Z" fill="#2F2E41"/>
<path d="M51.0173 17.712C51.0173 18.7758 50.6462 19.586 49.9041 20.1426C49.1681 20.6993 48.064 20.9776 46.592 20.9776C45.8375 20.9776 45.1943 20.925 44.6624 20.8199C44.1305 20.7209 43.6326 20.5725 43.1687 20.3746V18.0367C43.6944 18.2841 44.2851 18.4913 44.9407 18.6583C45.6025 18.8253 46.1838 18.9088 46.6848 18.9088C47.7115 18.9088 48.2249 18.6119 48.2249 18.0181C48.2249 17.7955 48.1568 17.6161 48.0208 17.48C47.8847 17.3378 47.6497 17.1801 47.3157 17.0069C46.9817 16.8275 46.5364 16.6203 45.9797 16.3853C45.1819 16.0513 44.5943 15.7421 44.217 15.4576C43.8459 15.1731 43.5738 14.8484 43.4006 14.4835C43.2336 14.1124 43.1501 13.6578 43.1501 13.1197C43.1501 12.1981 43.5058 11.4869 44.217 10.9859C44.9345 10.4787 45.9488 10.2252 47.26 10.2252C48.5094 10.2252 49.7247 10.4973 50.906 11.0416L50.0525 13.0826C49.533 12.8599 49.0474 12.6775 48.5959 12.5352C48.1444 12.393 47.6837 12.3218 47.2136 12.3218C46.3787 12.3218 45.9612 12.5476 45.9612 12.9991C45.9612 13.2527 46.0942 13.4722 46.3601 13.6578C46.6322 13.8433 47.2229 14.1186 48.1321 14.4835C48.9423 14.8113 49.5361 15.1174 49.9133 15.4019C50.2906 15.6864 50.5689 16.0142 50.7483 16.3853C50.9277 16.7564 51.0173 17.1986 51.0173 17.712Z" fill="#2F2E41"/>
<path d="M57.0208 12.2383C56.4208 12.2383 55.9508 12.4301 55.6106 12.8135C55.2704 13.1908 55.0756 13.7289 55.0261 14.4278H58.9968C58.9845 13.7289 58.802 13.1908 58.4495 12.8135C58.0969 12.4301 57.6207 12.2383 57.0208 12.2383ZM57.4197 20.9776C55.7498 20.9776 54.4447 20.5168 53.5046 19.5953C52.5645 18.6737 52.0945 17.3687 52.0945 15.6802C52.0945 13.9423 52.5274 12.6002 53.3933 11.6539C54.2654 10.7014 55.4683 10.2252 57.0022 10.2252C58.468 10.2252 59.6091 10.6426 60.4255 11.4776C61.2419 12.3126 61.6501 13.466 61.6501 14.938V16.3111H54.9612C54.9921 17.1151 55.2302 17.7429 55.6755 18.1944C56.1208 18.6459 56.7455 18.8716 57.5496 18.8716C58.1742 18.8716 58.7649 18.8067 59.3215 18.6768C59.8782 18.5469 60.4596 18.3397 61.0657 18.0552V20.2447C60.5709 20.4921 60.0421 20.6745 59.4792 20.7921C58.9164 20.9158 58.2299 20.9776 57.4197 20.9776Z" fill="#2F2E41"/>
<path d="M66.2805 20.7921H63.4509V6.35651H66.2805V20.7921Z" fill="#2F2E41"/>
<path d="M67.2742 10.42H70.3728L72.3303 16.2554C72.4973 16.7626 72.6117 17.3625 72.6736 18.0552H72.7292C72.7973 17.4182 72.9303 16.8183 73.1282 16.2554L75.0486 10.42H78.0823L73.6941 22.1187C73.2921 23.2011 72.7169 24.0113 71.9685 24.5494C71.2263 25.0875 70.3573 25.3565 69.3616 25.3565C68.873 25.3565 68.3936 25.3039 67.9236 25.1988V22.9537C68.2638 23.0341 68.6348 23.0743 69.0369 23.0743C69.5378 23.0743 69.9739 22.9197 70.345 22.6104C70.7222 22.3074 71.016 21.8466 71.2263 21.2281L71.3933 20.7178L67.2742 10.42Z" fill="#2F2E41"/>
</svg>
