<svg width="35" height="35" viewBox="0 0 35 35" fill="none" xmlns="http://www.w3.org/2000/svg">
<path d="M17.4844 -0.000120608C7.82422 -0.00402686 0 7.81629 0 17.4686C0 25.1015 4.89453 31.5897 11.7109 33.9726C12.6289 34.203 12.4883 33.5507 12.4883 33.1054V30.078C7.1875 30.6991 6.97266 27.1913 6.61719 26.6054C5.89844 25.3788 4.19922 25.0663 4.70703 24.4804C5.91406 23.8593 7.14453 24.6366 8.57031 26.7421C9.60156 28.2694 11.6133 28.0116 12.6328 27.7577C12.8555 26.8397 13.332 26.0194 13.9883 25.3827C8.49609 24.3983 6.20703 21.0468 6.20703 17.0624C6.20703 15.1288 6.84375 13.3515 8.09375 11.9179C7.29688 9.55457 8.16797 7.53114 8.28516 7.23035C10.5547 7.02723 12.9141 8.85536 13.0977 8.99989C14.3867 8.65223 15.8594 8.46864 17.5078 8.46864C19.1641 8.46864 20.6406 8.66004 21.9414 9.01161C22.3828 8.67567 24.5703 7.10535 26.6797 7.29676C26.793 7.59754 27.6445 9.57411 26.8945 11.9061C28.1602 13.3436 28.8047 15.1366 28.8047 17.0741C28.8047 21.0663 26.5 24.4218 20.9922 25.3905C21.4639 25.8545 21.8385 26.4078 22.0941 27.0181C22.3496 27.6284 22.481 28.2836 22.4805 28.9452V33.3398C22.5117 33.6913 22.4805 34.039 23.0664 34.039C29.9844 31.7069 34.9648 25.1718 34.9648 17.4725C34.9648 7.81629 27.1367 -0.000120608 17.4844 -0.000120608Z" fill="black"/>
</svg>
