<svg width="38" height="36" viewBox="0 0 38 36" fill="none" xmlns="http://www.w3.org/2000/svg">
<path d="M17.8607 7.36684C20.6854 7.36684 23.3471 8.61906 25.2977 10.5766V10.5824C25.2977 9.64234 25.9301 8.93125 26.8043 8.93125H27.0263C28.4057 8.93125 28.682 10.232 28.682 10.6425L28.6878 25.2517C28.5918 26.2091 29.6764 26.704 30.2788 26.0888C32.6202 23.6804 35.4264 13.695 28.8208 7.91375C22.6603 2.51753 14.3919 3.409 9.99586 6.43837C5.32346 9.66663 2.33686 16.7972 5.23789 23.4988C8.40602 30.8052 17.4629 32.9847 22.8534 30.811C25.5821 29.7091 26.8401 33.3929 24.0038 34.5988C19.7292 36.4222 7.81633 36.2361 2.25246 26.6011C-1.50651 20.0925 -1.30764 8.64334 8.66617 2.71178C16.2893 -1.82881 26.3475 -0.570812 32.4109 5.75966C38.7472 12.3838 38.3806 24.7777 32.1947 29.5957C29.3931 31.7868 25.2329 29.6559 25.263 26.4635L25.2318 25.4228C23.2812 27.3549 20.6854 28.4881 17.8607 28.4881C12.2725 28.4881 7.35267 23.5671 7.35267 17.9847C7.35267 12.3422 12.2725 7.36916 17.8607 7.36916V7.36684ZM24.8895 17.5812C24.6779 13.4915 21.6428 11.0287 17.9751 11.0287H17.8364C13.6091 11.0287 11.2608 14.3587 11.2608 18.1338C11.2608 22.3669 14.0971 25.0401 17.819 25.0401C21.9735 25.0401 24.701 22.0003 24.8999 18.4044L24.8895 17.5812Z" fill="black"/>
</svg>
