<svg width="39" height="39" viewBox="0 0 39 39" fill="none" xmlns="http://www.w3.org/2000/svg">
<path d="M19.2 -0.00012207C8.596 -0.00012207 0 8.59592 0 19.2C0 29.804 8.596 38.4001 19.2 38.4001C29.804 38.4001 38.4 29.804 38.4 19.2C38.4 8.59592 29.804 -0.00012207 19.2 -0.00012207ZM14.5 27.158H10.612V14.6459H14.5V27.158ZM12.532 13.1099C11.304 13.1099 10.51 12.2399 10.51 11.1639C10.51 10.0659 11.328 9.22192 12.582 9.22192C13.836 9.22192 14.604 10.0659 14.628 11.1639C14.628 12.2399 13.836 13.1099 12.532 13.1099ZM28.7 27.158H24.812V20.224C24.812 18.61 24.248 17.514 22.842 17.514C21.768 17.514 21.13 18.256 20.848 18.97C20.744 19.224 20.718 19.584 20.718 19.942V27.156H16.828V18.636C16.828 17.074 16.778 15.768 16.726 14.6439H20.104L20.282 16.382H20.36C20.872 15.566 22.126 14.3619 24.224 14.3619C26.782 14.3619 28.7 16.076 28.7 19.76V27.158Z" fill="black"/>
</svg>
