<svg width="19" height="27" viewBox="0 0 19 27" fill="none" xmlns="http://www.w3.org/2000/svg">
<path d="M9.75461 0.254891C8.70089 0.255179 7.69043 0.648883 6.94533 1.34946C6.20024 2.05003 5.78153 3.00013 5.78122 3.99088V5.68807H3.97618C3.454 5.68766 2.93686 5.78408 2.45435 5.97179C1.97185 6.15949 1.53345 6.43483 1.16422 6.78201C0.794998 7.12918 0.502206 7.54142 0.302595 7.9951C0.102985 8.4488 0.000475699 8.93505 0.000932214 9.42602V13.1607H5.78028V16.5551H3.97525C2.92123 16.555 1.91032 16.9485 1.16484 17.6491C0.419366 18.3497 0.000368188 19.3 0 20.291V26.7455H3.97711C4.49879 26.7453 5.01529 26.6485 5.49717 26.4605C5.97902 26.2726 6.41677 25.9972 6.78546 25.6502C7.15413 25.3032 7.44648 24.8912 7.64583 24.4379C7.84516 23.9845 7.94759 23.4989 7.94725 23.0084H7.95235V20.5425L7.94171 20.5438V4.83404L7.9505 4.836V3.99153C7.95141 3.54125 8.14173 3.10959 8.47991 2.79076C8.81806 2.47194 9.27664 2.29184 9.75554 2.28977H16.6584V3.99153C16.657 4.44161 16.466 4.87283 16.1273 5.19087C15.7886 5.50891 15.3298 5.68792 14.8511 5.68873H8.7674V7.72579H14.8501C15.9039 7.72584 16.9144 7.33233 17.6596 6.63183C18.4047 5.93132 18.8234 4.9812 18.8235 3.99045V0.254456L9.75461 0.254891ZM5.78122 11.1234H2.16975V9.42623C2.17054 8.97542 2.36108 8.54324 2.69975 8.22411C3.0384 7.905 3.49765 7.72489 3.97711 7.72318H5.78215L5.78122 11.1234ZM5.78122 23.0103C5.78042 23.4603 5.59005 23.8918 5.25177 24.2101C4.91348 24.5285 4.45482 24.708 3.97618 24.7091H2.16882V20.2921C2.16926 19.8418 2.35989 19.41 2.6988 19.0918C3.03773 18.7735 3.49717 18.5948 3.97618 18.595H5.78122V23.0103ZM8.7674 13.1605H13.3263V14.8594C13.3245 15.3094 13.1334 15.7405 12.7948 16.0584C12.4562 16.3764 11.9975 16.5555 11.5189 16.5566H8.7674V18.595H11.5198C12.0417 18.5952 12.5585 18.4988 13.0407 18.3111C13.5229 18.1235 13.9611 17.8483 14.3301 17.5013C14.6991 17.1543 14.9918 16.7424 15.1913 16.289C15.3909 15.8356 15.4935 15.3497 15.4932 14.859H15.4951V11.123H8.7674V13.1605Z" fill="#6C63FF"/>
</svg>
